<?xml version="1.0" encoding="utf-8" standalone="no"?>
<!DOCTYPE svg PUBLIC "-//W3C//DTD SVG 1.1//EN"
  "http://www.w3.org/Graphics/SVG/1.1/DTD/svg11.dtd">
<!-- Created with matplotlib (https://matplotlib.org/) -->
<svg height="345.6pt" version="1.1" viewBox="0 0 545.76 345.6" width="545.76pt" xmlns="http://www.w3.org/2000/svg" xmlns:xlink="http://www.w3.org/1999/xlink">
 <metadata>
  <rdf:RDF xmlns:cc="http://creativecommons.org/ns#" xmlns:dc="http://purl.org/dc/elements/1.1/" xmlns:rdf="http://www.w3.org/1999/02/22-rdf-syntax-ns#">
   <cc:Work>
    <dc:type rdf:resource="http://purl.org/dc/dcmitype/StillImage"/>
    <dc:date>2020-11-27T23:28:38.662963</dc:date>
    <dc:format>image/svg+xml</dc:format>
    <dc:creator>
     <cc:Agent>
      <dc:title>Matplotlib v3.3.0, https://matplotlib.org/</dc:title>
     </cc:Agent>
    </dc:creator>
   </cc:Work>
  </rdf:RDF>
 </metadata>
 <defs>
  <style type="text/css">*{stroke-linecap:butt;stroke-linejoin:round;}</style>
 </defs>
 <g id="figure_1">
  <g id="patch_1">
   <path d="M 0 345.6 
L 545.76 345.6 
L 545.76 0 
L 0 0 
z
" style="fill:#ffffff;"/>
  </g>
  <g id="axes_1">
   <g id="patch_2">
    <path d="M 68.22 307.584 
L 491.184 307.584 
L 491.184 41.472 
L 68.22 41.472 
z
" style="fill:#ffffff;"/>
   </g>
   <g id="matplotlib.axis_1">
    <g id="xtick_1">
     <g id="line2d_1">
      <defs>
       <path d="M 0 0 
L 0 3.5 
" id="mca94880b0a" style="stroke:#000000;stroke-width:0.8;"/>
      </defs>
      <g>
       <use style="stroke:#000000;stroke-width:0.8;" x="135.768803" xlink:href="#mca94880b0a" y="307.584"/>
      </g>
     </g>
     <g id="text_1">
      <!-- 2.80 -->
      <g transform="translate(124.63599 322.182437)scale(0.1 -0.1)">
       <defs>
        <path d="M 19.1875 8.296875 
L 53.609375 8.296875 
L 53.609375 0 
L 7.328125 0 
L 7.328125 8.296875 
Q 12.9375 14.109375 22.625 23.890625 
Q 32.328125 33.6875 34.8125 36.53125 
Q 39.546875 41.84375 41.421875 45.53125 
Q 43.3125 49.21875 43.3125 52.78125 
Q 43.3125 58.59375 39.234375 62.25 
Q 35.15625 65.921875 28.609375 65.921875 
Q 23.96875 65.921875 18.8125 64.3125 
Q 13.671875 62.703125 7.8125 59.421875 
L 7.8125 69.390625 
Q 13.765625 71.78125 18.9375 73 
Q 24.125 74.21875 28.421875 74.21875 
Q 39.75 74.21875 46.484375 68.546875 
Q 53.21875 62.890625 53.21875 53.421875 
Q 53.21875 48.921875 51.53125 44.890625 
Q 49.859375 40.875 45.40625 35.40625 
Q 44.1875 33.984375 37.640625 27.21875 
Q 31.109375 20.453125 19.1875 8.296875 
z
" id="DejaVuSans-50"/>
        <path d="M 10.6875 12.40625 
L 21 12.40625 
L 21 0 
L 10.6875 0 
z
" id="DejaVuSans-46"/>
        <path d="M 31.78125 34.625 
Q 24.75 34.625 20.71875 30.859375 
Q 16.703125 27.09375 16.703125 20.515625 
Q 16.703125 13.921875 20.71875 10.15625 
Q 24.75 6.390625 31.78125 6.390625 
Q 38.8125 6.390625 42.859375 10.171875 
Q 46.921875 13.96875 46.921875 20.515625 
Q 46.921875 27.09375 42.890625 30.859375 
Q 38.875 34.625 31.78125 34.625 
z
M 21.921875 38.8125 
Q 15.578125 40.375 12.03125 44.71875 
Q 8.5 49.078125 8.5 55.328125 
Q 8.5 64.0625 14.71875 69.140625 
Q 20.953125 74.21875 31.78125 74.21875 
Q 42.671875 74.21875 48.875 69.140625 
Q 55.078125 64.0625 55.078125 55.328125 
Q 55.078125 49.078125 51.53125 44.71875 
Q 48 40.375 41.703125 38.8125 
Q 48.828125 37.15625 52.796875 32.3125 
Q 56.78125 27.484375 56.78125 20.515625 
Q 56.78125 9.90625 50.3125 4.234375 
Q 43.84375 -1.421875 31.78125 -1.421875 
Q 19.734375 -1.421875 13.25 4.234375 
Q 6.78125 9.90625 6.78125 20.515625 
Q 6.78125 27.484375 10.78125 32.3125 
Q 14.796875 37.15625 21.921875 38.8125 
z
M 18.3125 54.390625 
Q 18.3125 48.734375 21.84375 45.5625 
Q 25.390625 42.390625 31.78125 42.390625 
Q 38.140625 42.390625 41.71875 45.5625 
Q 45.3125 48.734375 45.3125 54.390625 
Q 45.3125 60.0625 41.71875 63.234375 
Q 38.140625 66.40625 31.78125 66.40625 
Q 25.390625 66.40625 21.84375 63.234375 
Q 18.3125 60.0625 18.3125 54.390625 
z
" id="DejaVuSans-56"/>
        <path d="M 31.78125 66.40625 
Q 24.171875 66.40625 20.328125 58.90625 
Q 16.5 51.421875 16.5 36.375 
Q 16.5 21.390625 20.328125 13.890625 
Q 24.171875 6.390625 31.78125 6.390625 
Q 39.453125 6.390625 43.28125 13.890625 
Q 47.125 21.390625 47.125 36.375 
Q 47.125 51.421875 43.28125 58.90625 
Q 39.453125 66.40625 31.78125 66.40625 
z
M 31.78125 74.21875 
Q 44.046875 74.21875 50.515625 64.515625 
Q 56.984375 54.828125 56.984375 36.375 
Q 56.984375 17.96875 50.515625 8.265625 
Q 44.046875 -1.421875 31.78125 -1.421875 
Q 19.53125 -1.421875 13.0625 8.265625 
Q 6.59375 17.96875 6.59375 36.375 
Q 6.59375 54.828125 13.0625 64.515625 
Q 19.53125 74.21875 31.78125 74.21875 
z
" id="DejaVuSans-48"/>
       </defs>
       <use xlink:href="#DejaVuSans-50"/>
       <use x="63.623047" xlink:href="#DejaVuSans-46"/>
       <use x="95.410156" xlink:href="#DejaVuSans-56"/>
       <use x="159.033203" xlink:href="#DejaVuSans-48"/>
      </g>
     </g>
    </g>
    <g id="xtick_2">
     <g id="line2d_2">
      <g>
       <use style="stroke:#000000;stroke-width:0.8;" x="225.881933" xlink:href="#mca94880b0a" y="307.584"/>
      </g>
     </g>
     <g id="text_2">
      <!-- 2.82 -->
      <g transform="translate(214.74912 322.182437)scale(0.1 -0.1)">
       <use xlink:href="#DejaVuSans-50"/>
       <use x="63.623047" xlink:href="#DejaVuSans-46"/>
       <use x="95.410156" xlink:href="#DejaVuSans-56"/>
       <use x="159.033203" xlink:href="#DejaVuSans-50"/>
      </g>
     </g>
    </g>
    <g id="xtick_3">
     <g id="line2d_3">
      <g>
       <use style="stroke:#000000;stroke-width:0.8;" x="315.995063" xlink:href="#mca94880b0a" y="307.584"/>
      </g>
     </g>
     <g id="text_3">
      <!-- 2.84 -->
      <g transform="translate(304.862251 322.182437)scale(0.1 -0.1)">
       <defs>
        <path d="M 37.796875 64.3125 
L 12.890625 25.390625 
L 37.796875 25.390625 
z
M 35.203125 72.90625 
L 47.609375 72.90625 
L 47.609375 25.390625 
L 58.015625 25.390625 
L 58.015625 17.1875 
L 47.609375 17.1875 
L 47.609375 0 
L 37.796875 0 
L 37.796875 17.1875 
L 4.890625 17.1875 
L 4.890625 26.703125 
z
" id="DejaVuSans-52"/>
       </defs>
       <use xlink:href="#DejaVuSans-50"/>
       <use x="63.623047" xlink:href="#DejaVuSans-46"/>
       <use x="95.410156" xlink:href="#DejaVuSans-56"/>
       <use x="159.033203" xlink:href="#DejaVuSans-52"/>
      </g>
     </g>
    </g>
    <g id="xtick_4">
     <g id="line2d_4">
      <g>
       <use style="stroke:#000000;stroke-width:0.8;" x="406.108194" xlink:href="#mca94880b0a" y="307.584"/>
      </g>
     </g>
     <g id="text_4">
      <!-- 2.86 -->
      <g transform="translate(394.975381 322.182437)scale(0.1 -0.1)">
       <defs>
        <path d="M 33.015625 40.375 
Q 26.375 40.375 22.484375 35.828125 
Q 18.609375 31.296875 18.609375 23.390625 
Q 18.609375 15.53125 22.484375 10.953125 
Q 26.375 6.390625 33.015625 6.390625 
Q 39.65625 6.390625 43.53125 10.953125 
Q 47.40625 15.53125 47.40625 23.390625 
Q 47.40625 31.296875 43.53125 35.828125 
Q 39.65625 40.375 33.015625 40.375 
z
M 52.59375 71.296875 
L 52.59375 62.3125 
Q 48.875 64.0625 45.09375 64.984375 
Q 41.3125 65.921875 37.59375 65.921875 
Q 27.828125 65.921875 22.671875 59.328125 
Q 17.53125 52.734375 16.796875 39.40625 
Q 19.671875 43.65625 24.015625 45.921875 
Q 28.375 48.1875 33.59375 48.1875 
Q 44.578125 48.1875 50.953125 41.515625 
Q 57.328125 34.859375 57.328125 23.390625 
Q 57.328125 12.15625 50.6875 5.359375 
Q 44.046875 -1.421875 33.015625 -1.421875 
Q 20.359375 -1.421875 13.671875 8.265625 
Q 6.984375 17.96875 6.984375 36.375 
Q 6.984375 53.65625 15.1875 63.9375 
Q 23.390625 74.21875 37.203125 74.21875 
Q 40.921875 74.21875 44.703125 73.484375 
Q 48.484375 72.75 52.59375 71.296875 
z
" id="DejaVuSans-54"/>
       </defs>
       <use xlink:href="#DejaVuSans-50"/>
       <use x="63.623047" xlink:href="#DejaVuSans-46"/>
       <use x="95.410156" xlink:href="#DejaVuSans-56"/>
       <use x="159.033203" xlink:href="#DejaVuSans-54"/>
      </g>
     </g>
    </g>
    <g id="text_5">
     <!-- 1e12 -->
     <g transform="translate(465.943375 334.860562)scale(0.1 -0.1)">
      <defs>
       <path d="M 12.40625 8.296875 
L 28.515625 8.296875 
L 28.515625 63.921875 
L 10.984375 60.40625 
L 10.984375 69.390625 
L 28.421875 72.90625 
L 38.28125 72.90625 
L 38.28125 8.296875 
L 54.390625 8.296875 
L 54.390625 0 
L 12.40625 0 
z
" id="DejaVuSans-49"/>
       <path d="M 56.203125 29.59375 
L 56.203125 25.203125 
L 14.890625 25.203125 
Q 15.484375 15.921875 20.484375 11.0625 
Q 25.484375 6.203125 34.421875 6.203125 
Q 39.59375 6.203125 44.453125 7.46875 
Q 49.3125 8.734375 54.109375 11.28125 
L 54.109375 2.78125 
Q 49.265625 0.734375 44.1875 -0.34375 
Q 39.109375 -1.421875 33.890625 -1.421875 
Q 20.796875 -1.421875 13.15625 6.1875 
Q 5.515625 13.8125 5.515625 26.8125 
Q 5.515625 40.234375 12.765625 48.109375 
Q 20.015625 56 32.328125 56 
Q 43.359375 56 49.78125 48.890625 
Q 56.203125 41.796875 56.203125 29.59375 
z
M 47.21875 32.234375 
Q 47.125 39.59375 43.09375 43.984375 
Q 39.0625 48.390625 32.421875 48.390625 
Q 24.90625 48.390625 20.390625 44.140625 
Q 15.875 39.890625 15.1875 32.171875 
z
" id="DejaVuSans-101"/>
      </defs>
      <use xlink:href="#DejaVuSans-49"/>
      <use x="63.623047" xlink:href="#DejaVuSans-101"/>
      <use x="125.146484" xlink:href="#DejaVuSans-49"/>
      <use x="188.769531" xlink:href="#DejaVuSans-50"/>
     </g>
    </g>
   </g>
   <g id="matplotlib.axis_2">
    <g id="ytick_1">
     <g id="line2d_5">
      <defs>
       <path d="M 0 0 
L -3.5 0 
" id="m7ad328d7c4" style="stroke:#000000;stroke-width:0.8;"/>
      </defs>
      <g>
       <use style="stroke:#000000;stroke-width:0.8;" x="68.22" xlink:href="#m7ad328d7c4" y="273.995775"/>
      </g>
     </g>
     <g id="text_6">
      <!-- 20 -->
      <g transform="translate(48.495 277.794994)scale(0.1 -0.1)">
       <use xlink:href="#DejaVuSans-50"/>
       <use x="63.623047" xlink:href="#DejaVuSans-48"/>
      </g>
     </g>
    </g>
    <g id="ytick_2">
     <g id="line2d_6">
      <g>
       <use style="stroke:#000000;stroke-width:0.8;" x="68.22" xlink:href="#m7ad328d7c4" y="227.914675"/>
      </g>
     </g>
     <g id="text_7">
      <!-- 40 -->
      <g transform="translate(48.495 231.713894)scale(0.1 -0.1)">
       <use xlink:href="#DejaVuSans-52"/>
       <use x="63.623047" xlink:href="#DejaVuSans-48"/>
      </g>
     </g>
    </g>
    <g id="ytick_3">
     <g id="line2d_7">
      <g>
       <use style="stroke:#000000;stroke-width:0.8;" x="68.22" xlink:href="#m7ad328d7c4" y="181.833576"/>
      </g>
     </g>
     <g id="text_8">
      <!-- 60 -->
      <g transform="translate(48.495 185.632794)scale(0.1 -0.1)">
       <use xlink:href="#DejaVuSans-54"/>
       <use x="63.623047" xlink:href="#DejaVuSans-48"/>
      </g>
     </g>
    </g>
    <g id="ytick_4">
     <g id="line2d_8">
      <g>
       <use style="stroke:#000000;stroke-width:0.8;" x="68.22" xlink:href="#m7ad328d7c4" y="135.752476"/>
      </g>
     </g>
     <g id="text_9">
      <!-- 80 -->
      <g transform="translate(48.495 139.551695)scale(0.1 -0.1)">
       <use xlink:href="#DejaVuSans-56"/>
       <use x="63.623047" xlink:href="#DejaVuSans-48"/>
      </g>
     </g>
    </g>
    <g id="ytick_5">
     <g id="line2d_9">
      <g>
       <use style="stroke:#000000;stroke-width:0.8;" x="68.22" xlink:href="#m7ad328d7c4" y="89.671376"/>
      </g>
     </g>
     <g id="text_10">
      <!-- 100 -->
      <g transform="translate(42.1325 93.470595)scale(0.1 -0.1)">
       <use xlink:href="#DejaVuSans-49"/>
       <use x="63.623047" xlink:href="#DejaVuSans-48"/>
       <use x="127.246094" xlink:href="#DejaVuSans-48"/>
      </g>
     </g>
    </g>
    <g id="ytick_6">
     <g id="line2d_10">
      <g>
       <use style="stroke:#000000;stroke-width:0.8;" x="68.22" xlink:href="#m7ad328d7c4" y="43.590276"/>
      </g>
     </g>
     <g id="text_11">
      <!-- 120 -->
      <g transform="translate(42.1325 47.389495)scale(0.1 -0.1)">
       <use xlink:href="#DejaVuSans-49"/>
       <use x="63.623047" xlink:href="#DejaVuSans-50"/>
       <use x="127.246094" xlink:href="#DejaVuSans-48"/>
      </g>
     </g>
    </g>
   </g>
   <g id="line2d_11">
    <path clip-path="url(#p2b7caf374a)" d="M 0 0 
" style="fill:none;stroke:#1f77b4;stroke-linecap:square;stroke-width:1.5;"/>
   </g>
   <g id="line2d_12">
    <path clip-path="url(#p2b7caf374a)" d="M 88.689198 138.339418 
L 89.770555 137.417796 
L 90.851913 136.649777 
L 92.113497 135.216143 
L 93.194854 134.448125 
L 96.438927 131.376051 
L 97.520284 130.608033 
L 99.682999 129.379204 
L 100.764357 128.918393 
L 101.845715 128.611185 
L 103.107298 128.431981 
L 104.18415 128.431981 
L 106.346865 129.046396 
L 107.608449 129.584009 
L 108.689807 130.198423 
L 112.839517 133.145694 
L 115.002232 134.988938 
L 116.263815 136.422572 
L 118.426531 139.955456 
L 119.507888 142.873926 
L 120.589246 148.403658 
L 121.670603 159.309518 
L 122.751961 171.444208 
L 124.914676 203.700977 
L 128.158749 242.101894 
L 129.240106 252.546943 
L 130.321464 261.302352 
L 131.402821 268.214517 
L 133.561031 278.79141 
L 135.723746 285.857178 
L 136.98533 288.903651 
L 138.066687 291.822121 
L 139.148045 292.743743 
L 140.053682 292.22917 
L 142.216397 290.693134 
L 143.297755 290.846737 
L 144.379112 291.921963 
L 145.46047 292.22917 
L 146.541827 291.768359 
L 147.803411 290.513929 
L 148.884769 288.363478 
L 149.966126 285.137801 
L 152.128841 277.15041 
L 153.210199 271.774282 
L 158.977439 239.594314 
L 160.058797 232.989356 
L 164.559948 209.178868 
L 166.722663 198.733819 
L 168.885378 190.285617 
L 170.872372 183.229449 
L 173.035088 176.931699 
L 174.116445 174.47404 
L 175.197803 171.55557 
L 176.27916 169.097912 
L 180.604591 160.64971 
L 184.028889 156.118402 
L 185.110247 154.582365 
L 187.272962 152.27831 
L 190.517035 149.206237 
L 193.936828 146.291607 
L 196.099543 144.755571 
L 197.180901 144.29476 
L 199.348122 142.755523 
L 200.429479 141.833901 
L 206.917625 135.382547 
L 207.998982 134.921736 
L 209.08034 135.536151 
L 210.161697 136.76498 
L 211.243055 139.069035 
L 212.324412 143.216334 
L 213.40577 149.974895 
L 214.487128 160.419945 
L 215.568485 173.322653 
L 217.7312 201.432123 
L 218.812558 213.87402 
L 219.893915 227.69835 
L 220.975273 238.757814 
L 222.056631 247.513223 
L 223.137988 254.118181 
L 225.296198 263.160957 
L 226.377555 267.001048 
L 227.458913 269.458707 
L 228.54027 270.380329 
L 229.445907 270.251686 
L 230.527265 269.022856 
L 234.852695 261.803484 
L 235.934053 258.885014 
L 237.01541 254.430508 
L 238.096768 249.361587 
L 241.34084 230.314733 
L 244.584913 211.421482 
L 245.666271 206.352561 
L 248.910343 192.989042 
L 252.154416 183.158407 
L 253.235774 180.854352 
L 254.312626 180.548425 
L 255.393983 183.466895 
L 256.475341 188.228608 
L 257.556698 194.679962 
L 259.003014 202.281424 
L 260.084372 207.043137 
L 261.165729 209.961607 
L 262.247087 213.494491 
L 264.409802 217.795394 
L 265.491159 218.563412 
L 266.572517 218.102601 
L 267.653874 216.259357 
L 268.735232 213.648095 
L 269.81659 210.422418 
L 270.897947 207.657552 
L 273.060662 198.748539 
L 275.223377 190.146734 
L 278.46745 178.933666 
L 279.548808 175.554386 
L 280.630165 172.78952 
L 281.711523 170.485465 
L 282.79288 173.403934 
L 283.869732 179.675444 
L 286.032447 197.186262 
L 288.199668 206.522805 
L 289.281026 209.902085 
L 290.362383 212.20614 
L 291.443741 212.359744 
L 292.525098 211.438122 
L 293.606456 210.055689 
L 294.687814 206.369201 
L 295.769171 202.068299 
L 298.112113 191.392844 
L 300.274828 180.794191 
L 305.140937 162.489754 
L 309.466367 149.894253 
L 312.71044 141.446052 
L 313.791797 138.681186 
L 317.937001 130.106261 
L 320.099716 125.958962 
L 322.262431 122.579682 
L 325.68673 118.534785 
L 326.768088 116.998748 
L 330.192387 113.747471 
L 331.273745 112.979452 
L 332.355102 112.518641 
L 333.43646 112.211434 
L 334.517817 112.211434 
L 336.680532 111.904227 
L 338.843247 111.289812 
L 339.924605 111.289812 
L 342.08732 110.982605 
L 343.168678 111.136208 
L 344.24553 113.889554 
L 345.326887 121.723341 
L 346.408245 132.629201 
L 350.197502 191.170758 
L 351.278859 201.001393 
L 353.441575 216.668967 
L 354.522932 221.430681 
L 355.60429 224.502754 
L 356.685647 226.192394 
L 357.767005 225.885187 
L 358.848362 223.888339 
L 359.92972 221.277077 
L 361.011078 218.358607 
L 363.173793 213.904101 
L 364.25515 212.060857 
L 365.336508 208.681576 
L 366.417865 204.687881 
L 370.743296 186.869856 
L 371.824653 183.029764 
L 379.394156 160.143458 
L 380.475514 156.45697 
L 381.556871 152.002464 
L 383.719586 144.936695 
L 386.963659 137.563719 
L 393.632031 126.350652 
L 396.876103 121.742542 
L 403.364249 114.523169 
L 404.441101 113.605387 
L 405.702685 112.350957 
L 407.869905 109.426728 
L 408.951263 107.890691 
L 413.276693 102.82177 
L 414.358051 101.439337 
L 415.439408 99.749697 
L 416.520766 98.674471 
L 417.602123 100.824922 
L 418.683481 106.354654 
L 419.764839 114.802856 
L 420.846196 127.091149 
L 422.10778 144.832373 
L 423.189137 156.813459 
L 424.270495 165.415264 
L 425.351853 172.941843 
L 426.43321 179.08599 
L 427.514568 183.079685 
L 428.595925 187.687795 
L 429.677283 191.374283 
L 430.75864 193.063924 
L 431.839998 193.985546 
L 432.921356 193.063924 
L 434.002713 191.22068 
L 435.079565 188.161407 
L 438.688596 174.525241 
L 439.769953 170.377942 
L 442.112895 162.544155 
L 444.27561 155.785594 
L 447.519683 145.494148 
L 449.862624 138.505182 
L 452.205565 132.335434 
L 456.530996 120.968763 
L 462.11801 106.683622 
L 464.280725 100.232268 
L 467.344571 94.114362 
L 468.425929 92.424722 
L 469.507286 90.274271 
L 471.670002 86.587783 
L 471.670002 86.587783 
" style="fill:none;stroke:#ff7f0e;stroke-linecap:square;stroke-width:1.5;"/>
   </g>
   <g id="line2d_13">
    <path clip-path="url(#p2b7caf374a)" d="M 87.445636 117.218658 
L 88.436881 151.02836 
L 89.428125 147.954751 
L 90.41937 149.491556 
L 91.410614 149.491556 
L 92.401859 146.417946 
L 93.393103 147.954751 
L 94.384347 146.417946 
L 95.375592 146.417946 
L 96.366836 143.344337 
L 98.344819 143.344337 
L 99.336064 144.881142 
L 100.327308 143.344337 
L 101.318553 144.881142 
L 102.309797 141.807532 
L 103.301042 141.807532 
L 105.283531 138.733923 
L 106.279281 138.733923 
L 110.244258 144.881142 
L 113.217992 144.881142 
L 114.209236 146.417946 
L 115.200481 146.417946 
L 116.191725 149.491556 
L 117.182969 137.197118 
L 118.174214 144.881142 
L 119.165458 147.954751 
L 121.147947 151.02836 
L 122.139192 172.543626 
L 123.130436 183.301259 
L 124.12168 192.522087 
L 126.104169 220.184571 
L 127.090908 237.089422 
L 128.082153 249.38386 
L 130.064641 261.678297 
L 131.055886 272.43593 
L 133.038375 281.656758 
L 134.029619 284.730367 
L 135.020864 286.267172 
L 135.926501 289.340781 
L 136.917745 290.877586 
L 137.908989 293.951195 
L 139.891478 293.951195 
L 140.882723 295.488 
L 141.873967 293.951195 
L 143.856456 293.951195 
L 144.8477 295.488 
L 145.838945 295.488 
L 148.812678 290.877586 
L 151.786411 281.656758 
L 153.7689 272.43593 
L 155.751389 260.141492 
L 156.738128 255.531078 
L 157.729372 247.847055 
L 158.720617 246.31025 
L 159.711861 246.31025 
L 160.703106 244.773446 
L 161.69435 237.089422 
L 162.685595 226.33179 
L 163.676839 220.184571 
L 164.668083 212.500547 
L 165.57372 207.890133 
L 166.564965 206.353329 
L 168.547454 200.20611 
L 170.529943 190.985282 
L 171.521187 187.911673 
L 172.512431 186.374868 
L 173.503676 183.301259 
L 174.49492 183.301259 
L 176.477409 174.080431 
L 177.468654 171.006821 
L 178.459898 166.396407 
L 179.451142 166.396407 
L 180.442387 164.859603 
L 181.433631 164.859603 
L 182.424876 161.785993 
L 184.407365 158.712384 
L 185.394103 155.638774 
L 187.376592 155.638774 
L 188.367837 152.565165 
L 189.359081 154.10197 
L 190.350326 154.10197 
L 191.34157 152.565165 
L 192.332814 152.565165 
L 194.315303 149.491556 
L 195.22094 143.344337 
L 196.212185 140.270728 
L 197.203429 141.807532 
L 198.194674 141.807532 
L 199.185918 155.638774 
L 200.177162 155.638774 
L 201.168407 154.10197 
L 205.133385 154.10197 
L 206.124629 157.175579 
L 207.115873 158.712384 
L 208.107118 158.712384 
L 209.098362 155.638774 
L 210.089607 157.175579 
L 211.080851 154.10197 
L 212.072096 155.638774 
L 213.06334 163.322798 
L 215.041323 184.838063 
L 216.032568 198.669305 
L 217.023812 203.279719 
L 218.015057 217.110962 
L 219.006301 226.33179 
L 219.997545 246.31025 
L 220.98879 250.920664 
L 221.980034 258.604688 
L 222.971279 264.751906 
L 223.962523 269.362321 
L 224.86816 272.43593 
L 225.859405 277.046344 
L 227.841893 280.119953 
L 228.833138 280.119953 
L 229.824382 281.656758 
L 231.806871 278.583149 
L 232.798116 275.509539 
L 233.78936 273.972735 
L 234.780605 275.509539 
L 236.763093 266.288711 
L 237.754338 263.215102 
L 238.745582 257.067883 
L 239.736827 252.457469 
L 242.71056 234.015813 
L 243.701804 229.405399 
L 244.688543 229.405399 
L 245.679788 226.33179 
L 246.671032 221.721376 
L 248.653521 209.426938 
L 249.644765 204.816524 
L 252.618499 195.595696 
L 253.609743 194.058891 
L 254.51538 194.058891 
L 255.506624 197.132501 
L 256.497869 201.742915 
L 257.489113 167.933212 
L 258.480358 174.080431 
L 259.471602 175.617235 
L 260.462847 214.037352 
L 261.454091 223.25818 
L 262.445336 226.33179 
L 263.43658 227.868594 
L 264.427824 226.33179 
L 265.419069 229.405399 
L 267.401558 229.405399 
L 268.392802 226.33179 
L 269.384047 221.721376 
L 270.375291 218.647766 
L 271.366535 217.110962 
L 274.335763 207.890133 
L 276.318252 198.669305 
L 277.309496 197.132501 
L 278.300741 190.985282 
L 279.291985 192.522087 
L 280.28323 192.522087 
L 281.274474 190.985282 
L 282.265719 194.058891 
L 283.256963 192.522087 
L 284.1626 197.132501 
L 286.145089 212.500547 
L 290.110067 224.794985 
L 291.101311 226.33179 
L 292.092555 223.25818 
L 293.0838 223.25818 
L 294.075044 220.184571 
L 295.066289 220.184571 
L 297.048778 207.890133 
L 301.013755 189.448477 
L 302.005 195.595696 
L 302.991739 207.890133 
L 303.982983 207.890133 
L 304.974227 204.816524 
L 305.965472 192.522087 
L 306.956716 178.690845 
L 307.947961 171.006821 
L 308.939205 169.470017 
L 311.912938 160.249189 
L 314.801064 155.638774 
L 316.783553 149.491556 
L 317.774798 149.491556 
L 318.766042 144.881142 
L 319.757286 143.344337 
L 320.748531 143.344337 
L 321.739775 141.807532 
L 322.73102 141.807532 
L 324.713509 138.733923 
L 325.704753 138.733923 
L 326.695997 135.660314 
L 327.687242 137.197118 
L 328.678486 137.197118 
L 330.660975 134.123509 
L 331.65222 131.0499 
L 332.638958 132.586704 
L 333.630203 131.0499 
L 334.621447 131.0499 
L 335.612692 132.586704 
L 336.603936 131.0499 
L 337.595181 127.97629 
L 338.586425 134.123509 
L 340.568914 131.0499 
L 341.560158 135.660314 
L 342.551403 124.902681 
L 343.45704 120.292267 
L 344.448284 124.902681 
L 345.439529 134.123509 
L 346.430773 144.881142 
L 347.422017 149.491556 
L 348.413262 166.396407 
L 349.404506 178.690845 
L 350.395751 189.448477 
L 351.386995 210.963743 
L 352.37824 215.574157 
L 353.369484 223.25818 
L 354.360729 226.33179 
L 357.334462 230.942204 
L 359.316951 230.942204 
L 360.308195 226.33179 
L 361.294934 223.25818 
L 362.286178 221.721376 
L 363.277423 218.647766 
L 364.268667 218.647766 
L 365.259912 215.574157 
L 366.251156 210.963743 
L 367.2424 209.426938 
L 370.216134 195.595696 
L 371.207378 192.522087 
L 372.198623 190.985282 
L 373.10426 186.374868 
L 374.095504 184.838063 
L 375.086748 180.227649 
L 377.069237 174.080431 
L 378.060482 172.543626 
L 379.051726 172.543626 
L 380.042971 171.006821 
L 382.02546 164.859603 
L 383.016704 158.712384 
L 384.999193 155.638774 
L 385.990437 152.565165 
L 386.981682 154.10197 
L 387.972926 149.491556 
L 388.964171 146.417946 
L 389.955415 147.954751 
L 390.942154 152.565165 
L 391.933398 147.954751 
L 392.924643 144.881142 
L 393.915887 143.344337 
L 394.907132 143.344337 
L 395.898376 141.807532 
L 396.88962 143.344337 
L 397.880865 140.270728 
L 399.863354 140.270728 
L 400.854598 137.197118 
L 401.845843 137.197118 
L 403.742724 134.123509 
L 405.725213 131.0499 
L 406.716457 131.0499 
L 408.698946 127.97629 
L 409.690191 124.902681 
L 410.681435 120.292267 
L 411.672679 120.292267 
L 412.663924 117.218658 
L 413.655168 121.829072 
L 414.646413 123.365876 
L 416.628902 123.365876 
L 417.620146 121.829072 
L 418.61139 124.902681 
L 419.602635 135.660314 
L 420.589374 143.344337 
L 421.580618 154.10197 
L 422.571863 166.396407 
L 423.563107 175.617235 
L 424.554351 181.764454 
L 425.545596 183.301259 
L 427.528085 192.522087 
L 428.519329 195.595696 
L 429.510574 197.132501 
L 430.501818 201.742915 
L 431.493062 200.20611 
L 432.398699 201.742915 
L 434.381188 198.669305 
L 436.363677 192.522087 
L 437.354922 192.522087 
L 440.328655 183.301259 
L 441.319899 184.838063 
L 442.311144 178.690845 
L 443.302388 177.15404 
L 447.267366 164.859603 
L 448.25861 167.933212 
L 449.245349 161.785993 
L 450.236594 149.491556 
L 451.227838 151.02836 
L 452.219082 147.954751 
L 454.201571 144.881142 
L 455.192816 155.638774 
L 456.18406 152.565165 
L 457.175305 151.02836 
L 458.166549 147.954751 
L 459.157793 138.733923 
L 460.149038 137.197118 
L 462.045919 131.0499 
L 463.037164 131.0499 
L 464.028408 120.292267 
L 465.019653 58.82008 
L 467.002141 55.746471 
L 467.993386 53.568 
L 468.98463 68.936047 
L 469.975875 128.871429 
L 470.967119 127.334624 
L 471.958364 124.902681 
L 471.958364 124.902681 
" style="fill:none;stroke:#2ca02c;stroke-linecap:square;stroke-width:1.5;"/>
   </g>
   <g id="patch_3">
    <path d="M 68.22 307.584 
L 68.22 41.472 
" style="fill:none;stroke:#000000;stroke-linecap:square;stroke-linejoin:miter;stroke-width:0.8;"/>
   </g>
   <g id="patch_4">
    <path d="M 491.184 307.584 
L 491.184 41.472 
" style="fill:none;stroke:#000000;stroke-linecap:square;stroke-linejoin:miter;stroke-width:0.8;"/>
   </g>
   <g id="patch_5">
    <path d="M 68.22 307.584 
L 491.184 307.584 
" style="fill:none;stroke:#000000;stroke-linecap:square;stroke-linejoin:miter;stroke-width:0.8;"/>
   </g>
   <g id="patch_6">
    <path d="M 68.22 41.472 
L 491.184 41.472 
" style="fill:none;stroke:#000000;stroke-linecap:square;stroke-linejoin:miter;stroke-width:0.8;"/>
   </g>
   <g id="legend_1">
    <g id="patch_7">
     <path d="M 75.22 79.3845 
L 157.77 79.3845 
Q 159.77 79.3845 159.77 77.3845 
L 159.77 48.472 
Q 159.77 46.472 157.77 46.472 
L 75.22 46.472 
Q 73.22 46.472 73.22 48.472 
L 73.22 77.3845 
Q 73.22 79.3845 75.22 79.3845 
z
" style="fill:#ffffff;opacity:0.8;stroke:#cccccc;stroke-linejoin:miter;"/>
    </g>
    <g id="line2d_14">
     <path d="M 77.22 54.570438 
L 97.22 54.570438 
" style="fill:none;stroke:#ff7f0e;stroke-linecap:square;stroke-width:1.5;"/>
    </g>
    <g id="line2d_15"/>
    <g id="text_12">
     <!-- 77_new -->
     <g transform="translate(105.22 58.070438)scale(0.1 -0.1)">
      <defs>
       <path d="M 8.203125 72.90625 
L 55.078125 72.90625 
L 55.078125 68.703125 
L 28.609375 0 
L 18.3125 0 
L 43.21875 64.59375 
L 8.203125 64.59375 
z
" id="DejaVuSans-55"/>
       <path d="M 50.984375 -16.609375 
L 50.984375 -23.578125 
L -0.984375 -23.578125 
L -0.984375 -16.609375 
z
" id="DejaVuSans-95"/>
       <path d="M 54.890625 33.015625 
L 54.890625 0 
L 45.90625 0 
L 45.90625 32.71875 
Q 45.90625 40.484375 42.875 44.328125 
Q 39.84375 48.1875 33.796875 48.1875 
Q 26.515625 48.1875 22.3125 43.546875 
Q 18.109375 38.921875 18.109375 30.90625 
L 18.109375 0 
L 9.078125 0 
L 9.078125 54.6875 
L 18.109375 54.6875 
L 18.109375 46.1875 
Q 21.34375 51.125 25.703125 53.5625 
Q 30.078125 56 35.796875 56 
Q 45.21875 56 50.046875 50.171875 
Q 54.890625 44.34375 54.890625 33.015625 
z
" id="DejaVuSans-110"/>
       <path d="M 4.203125 54.6875 
L 13.1875 54.6875 
L 24.421875 12.015625 
L 35.59375 54.6875 
L 46.1875 54.6875 
L 57.421875 12.015625 
L 68.609375 54.6875 
L 77.59375 54.6875 
L 63.28125 0 
L 52.6875 0 
L 40.921875 44.828125 
L 29.109375 0 
L 18.5 0 
z
" id="DejaVuSans-119"/>
      </defs>
      <use xlink:href="#DejaVuSans-55"/>
      <use x="63.623047" xlink:href="#DejaVuSans-55"/>
      <use x="127.246094" xlink:href="#DejaVuSans-95"/>
      <use x="177.246094" xlink:href="#DejaVuSans-110"/>
      <use x="240.625" xlink:href="#DejaVuSans-101"/>
      <use x="302.148438" xlink:href="#DejaVuSans-119"/>
     </g>
    </g>
    <g id="line2d_16">
     <path d="M 77.22 69.526688 
L 97.22 69.526688 
" style="fill:none;stroke:#2ca02c;stroke-linecap:square;stroke-width:1.5;"/>
    </g>
    <g id="line2d_17"/>
    <g id="text_13">
     <!-- 77_legacy -->
     <g transform="translate(105.22 73.026688)scale(0.1 -0.1)">
      <defs>
       <path d="M 9.421875 75.984375 
L 18.40625 75.984375 
L 18.40625 0 
L 9.421875 0 
z
" id="DejaVuSans-108"/>
       <path d="M 45.40625 27.984375 
Q 45.40625 37.75 41.375 43.109375 
Q 37.359375 48.484375 30.078125 48.484375 
Q 22.859375 48.484375 18.828125 43.109375 
Q 14.796875 37.75 14.796875 27.984375 
Q 14.796875 18.265625 18.828125 12.890625 
Q 22.859375 7.515625 30.078125 7.515625 
Q 37.359375 7.515625 41.375 12.890625 
Q 45.40625 18.265625 45.40625 27.984375 
z
M 54.390625 6.78125 
Q 54.390625 -7.171875 48.1875 -13.984375 
Q 42 -20.796875 29.203125 -20.796875 
Q 24.46875 -20.796875 20.265625 -20.09375 
Q 16.0625 -19.390625 12.109375 -17.921875 
L 12.109375 -9.1875 
Q 16.0625 -11.328125 19.921875 -12.34375 
Q 23.78125 -13.375 27.78125 -13.375 
Q 36.625 -13.375 41.015625 -8.765625 
Q 45.40625 -4.15625 45.40625 5.171875 
L 45.40625 9.625 
Q 42.625 4.78125 38.28125 2.390625 
Q 33.9375 0 27.875 0 
Q 17.828125 0 11.671875 7.65625 
Q 5.515625 15.328125 5.515625 27.984375 
Q 5.515625 40.671875 11.671875 48.328125 
Q 17.828125 56 27.875 56 
Q 33.9375 56 38.28125 53.609375 
Q 42.625 51.21875 45.40625 46.390625 
L 45.40625 54.6875 
L 54.390625 54.6875 
z
" id="DejaVuSans-103"/>
       <path d="M 34.28125 27.484375 
Q 23.390625 27.484375 19.1875 25 
Q 14.984375 22.515625 14.984375 16.5 
Q 14.984375 11.71875 18.140625 8.90625 
Q 21.296875 6.109375 26.703125 6.109375 
Q 34.1875 6.109375 38.703125 11.40625 
Q 43.21875 16.703125 43.21875 25.484375 
L 43.21875 27.484375 
z
M 52.203125 31.203125 
L 52.203125 0 
L 43.21875 0 
L 43.21875 8.296875 
Q 40.140625 3.328125 35.546875 0.953125 
Q 30.953125 -1.421875 24.3125 -1.421875 
Q 15.921875 -1.421875 10.953125 3.296875 
Q 6 8.015625 6 15.921875 
Q 6 25.140625 12.171875 29.828125 
Q 18.359375 34.515625 30.609375 34.515625 
L 43.21875 34.515625 
L 43.21875 35.40625 
Q 43.21875 41.609375 39.140625 45 
Q 35.0625 48.390625 27.6875 48.390625 
Q 23 48.390625 18.546875 47.265625 
Q 14.109375 46.140625 10.015625 43.890625 
L 10.015625 52.203125 
Q 14.9375 54.109375 19.578125 55.046875 
Q 24.21875 56 28.609375 56 
Q 40.484375 56 46.34375 49.84375 
Q 52.203125 43.703125 52.203125 31.203125 
z
" id="DejaVuSans-97"/>
       <path d="M 48.78125 52.59375 
L 48.78125 44.1875 
Q 44.96875 46.296875 41.140625 47.34375 
Q 37.3125 48.390625 33.40625 48.390625 
Q 24.65625 48.390625 19.8125 42.84375 
Q 14.984375 37.3125 14.984375 27.296875 
Q 14.984375 17.28125 19.8125 11.734375 
Q 24.65625 6.203125 33.40625 6.203125 
Q 37.3125 6.203125 41.140625 7.25 
Q 44.96875 8.296875 48.78125 10.40625 
L 48.78125 2.09375 
Q 45.015625 0.34375 40.984375 -0.53125 
Q 36.96875 -1.421875 32.421875 -1.421875 
Q 20.0625 -1.421875 12.78125 6.34375 
Q 5.515625 14.109375 5.515625 27.296875 
Q 5.515625 40.671875 12.859375 48.328125 
Q 20.21875 56 33.015625 56 
Q 37.15625 56 41.109375 55.140625 
Q 45.0625 54.296875 48.78125 52.59375 
z
" id="DejaVuSans-99"/>
       <path d="M 32.171875 -5.078125 
Q 28.375 -14.84375 24.75 -17.8125 
Q 21.140625 -20.796875 15.09375 -20.796875 
L 7.90625 -20.796875 
L 7.90625 -13.28125 
L 13.1875 -13.28125 
Q 16.890625 -13.28125 18.9375 -11.515625 
Q 21 -9.765625 23.484375 -3.21875 
L 25.09375 0.875 
L 2.984375 54.6875 
L 12.5 54.6875 
L 29.59375 11.921875 
L 46.6875 54.6875 
L 56.203125 54.6875 
z
" id="DejaVuSans-121"/>
      </defs>
      <use xlink:href="#DejaVuSans-55"/>
      <use x="63.623047" xlink:href="#DejaVuSans-55"/>
      <use x="127.246094" xlink:href="#DejaVuSans-95"/>
      <use x="177.246094" xlink:href="#DejaVuSans-108"/>
      <use x="205.029297" xlink:href="#DejaVuSans-101"/>
      <use x="266.552734" xlink:href="#DejaVuSans-103"/>
      <use x="330.029297" xlink:href="#DejaVuSans-97"/>
      <use x="391.308594" xlink:href="#DejaVuSans-99"/>
      <use x="446.289062" xlink:href="#DejaVuSans-121"/>
     </g>
    </g>
   </g>
  </g>
 </g>
 <defs>
  <clipPath id="p2b7caf374a">
   <rect height="266.112" width="422.964" x="68.22" y="41.472"/>
  </clipPath>
 </defs>
</svg>
