<?xml version="1.0" encoding="utf-8" standalone="no"?>
<!DOCTYPE svg PUBLIC "-//W3C//DTD SVG 1.1//EN"
  "http://www.w3.org/Graphics/SVG/1.1/DTD/svg11.dtd">
<!-- Created with matplotlib (https://matplotlib.org/) -->
<svg height="345.6pt" version="1.1" viewBox="0 0 619.2 345.6" width="619.2pt" xmlns="http://www.w3.org/2000/svg" xmlns:xlink="http://www.w3.org/1999/xlink">
 <defs>
  <style type="text/css">
*{stroke-linecap:butt;stroke-linejoin:round;}
  </style>
 </defs>
 <g id="figure_1">
  <g id="patch_1">
   <path d="M 0 345.6 
L 619.2 345.6 
L 619.2 0 
L 0 0 
z
" style="fill:#292625;"/>
  </g>
  <g id="axes_1">
   <g id="patch_2">
    <path d="M 77.4 307.584 
L 557.28 307.584 
L 557.28 41.472 
L 77.4 41.472 
z
" style="fill:#1e1c1b;"/>
   </g>
   <g id="matplotlib.axis_1">
    <g id="xtick_1">
     <g id="line2d_1">
      <path clip-path="url(#p8dc06d0857)" d="M 99.207281 307.584 
L 99.207281 41.472 
" style="fill:none;stroke:#4f4845;stroke-linecap:square;"/>
     </g>
     <g id="line2d_2">
      <defs>
       <path d="M 0 0 
L 0 3.5 
" id="m1c3496eee6" style="stroke:#f1f2f3;stroke-width:0.8;"/>
      </defs>
      <g>
       <use style="fill:#f1f2f3;stroke:#f1f2f3;stroke-width:0.8;" x="99.207281" xlink:href="#m1c3496eee6" y="307.584"/>
      </g>
     </g>
     <g id="text_1">
      <!-- 0 -->
      <defs>
       <path d="M 31 73.703125 
C 15.09375 73.703125 4.59375 59.703125 4.59375 36.296875 
C 4.59375 13.296875 14.703125 -0.90625 30.203125 -0.90625 
C 46.09375 -0.90625 56.59375 13.796875 56.59375 37.296875 
C 56.59375 60.203125 46.59375 73.703125 31 73.703125 
z
M 30.296875 65.90625 
C 41 65.90625 47.90625 55.59375 47.90625 36 
C 47.90625 17.5 41.703125 6.90625 31 6.90625 
C 20.203125 6.90625 13.40625 17.703125 13.40625 37.40625 
C 13.40625 55.796875 19.59375 65.90625 30.296875 65.90625 
z
" id="Gravity-Regular-48"/>
      </defs>
      <g style="fill:#f1f2f3;" transform="translate(96.147125 322.043375)scale(0.1 -0.1)">
       <use xlink:href="#Gravity-Regular-48"/>
      </g>
     </g>
    </g>
    <g id="xtick_2">
     <g id="line2d_3">
      <path clip-path="url(#p8dc06d0857)" d="M 153.671019 307.584 
L 153.671019 41.472 
" style="fill:none;stroke:#4f4845;stroke-linecap:square;"/>
     </g>
     <g id="line2d_4">
      <g>
       <use style="fill:#f1f2f3;stroke:#f1f2f3;stroke-width:0.8;" x="153.671019" xlink:href="#m1c3496eee6" y="307.584"/>
      </g>
     </g>
     <g id="text_2">
      <!-- 1 -->
      <defs>
       <path d="M 37.59375 0 
C 38.59375 0 39.203125 0.59375 39.203125 1.59375 
L 38.796875 71.203125 
C 38.796875 72.203125 38.203125 72.796875 37.203125 72.796875 
L 27.203125 72.796875 
C 26.40625 72.796875 25.90625 72.59375 25.203125 72.09375 
L 5.796875 55.703125 
C 5 55.09375 5 54.296875 5.703125 53.5 
L 8.796875 50 
C 9.5 49.203125 10.296875 49.203125 11.09375 49.796875 
L 29.40625 65.59375 
L 30.09375 65.59375 
L 29.703125 1.59375 
C 29.703125 0.59375 30.296875 0 31.296875 0 
z
" id="Gravity-Regular-49"/>
      </defs>
      <g style="fill:#f1f2f3;" transform="translate(151.100707 322.043375)scale(0.1 -0.1)">
       <use xlink:href="#Gravity-Regular-49"/>
      </g>
     </g>
    </g>
    <g id="xtick_3">
     <g id="line2d_5">
      <path clip-path="url(#p8dc06d0857)" d="M 208.134758 307.584 
L 208.134758 41.472 
" style="fill:none;stroke:#4f4845;stroke-linecap:square;"/>
     </g>
     <g id="line2d_6">
      <g>
       <use style="fill:#f1f2f3;stroke:#f1f2f3;stroke-width:0.8;" x="208.134758" xlink:href="#m1c3496eee6" y="307.584"/>
      </g>
     </g>
     <g id="text_3">
      <!-- 2 -->
      <defs>
       <path d="M 21.09375 8.09375 
L 21.09375 8.5 
L 37.90625 27.09375 
C 47 37.296875 53.296875 45.203125 53.296875 54.203125 
C 53.296875 64.796875 45.796875 74 32 74 
C 18.703125 74 10.703125 65.59375 8 56.203125 
C 7.59375 55.09375 8.203125 54.40625 9.296875 54.40625 
L 14.40625 54.40625 
C 15.40625 54.40625 15.90625 54.796875 16.203125 55.703125 
C 18.796875 62.5 24.40625 66.203125 31.5 66.203125 
C 40 66.203125 45 61.09375 45 54 
C 45 47.296875 40 40.703125 31.90625 32.09375 
L 9.5 8.203125 
C 8.59375 7.203125 8.5 6.40625 8.5 5.59375 
L 8.5 1.59375 
C 8.5 0.59375 9.09375 0 10.09375 0 
L 54 0 
C 55 0 55.59375 0.59375 55.59375 1.59375 
L 55.59375 6.5 
C 55.59375 7.5 55 8.09375 54 8.09375 
z
" id="Gravity-Regular-50"/>
      </defs>
      <g style="fill:#f1f2f3;" transform="translate(205.124602 322.043375)scale(0.1 -0.1)">
       <use xlink:href="#Gravity-Regular-50"/>
      </g>
     </g>
    </g>
    <g id="xtick_4">
     <g id="line2d_7">
      <path clip-path="url(#p8dc06d0857)" d="M 262.598496 307.584 
L 262.598496 41.472 
" style="fill:none;stroke:#4f4845;stroke-linecap:square;"/>
     </g>
     <g id="line2d_8">
      <g>
       <use style="fill:#f1f2f3;stroke:#f1f2f3;stroke-width:0.8;" x="262.598496" xlink:href="#m1c3496eee6" y="307.584"/>
      </g>
     </g>
     <g id="text_4">
      <!-- 3 -->
      <defs>
       <path d="M 40.40625 38.703125 
C 48.40625 41.703125 52.09375 47.796875 52.09375 54.796875 
C 52.09375 64.90625 44.40625 74 30.5 74 
C 17 74 9.09375 65.40625 6.40625 56.203125 
C 6.09375 55.09375 6.703125 54.40625 7.796875 54.40625 
L 12.90625 54.40625 
C 13.90625 54.40625 14.40625 54.796875 14.703125 55.703125 
C 17.203125 62.5 22.796875 66.203125 30.09375 66.203125 
C 38.59375 66.203125 43.796875 61.09375 43.796875 54 
C 43.796875 46.90625 38.59375 42 25.90625 42 
L 22.796875 42 
C 21.796875 42 21.203125 41.40625 21.203125 40.40625 
L 21.203125 36.203125 
C 21.203125 35.203125 21.796875 34.59375 22.796875 34.59375 
L 25.90625 34.59375 
C 39.796875 34.59375 45.796875 29.703125 45.796875 21.203125 
C 45.796875 12.296875 39.703125 6.796875 29.703125 6.796875 
C 21.703125 6.796875 15.5 10.5 13.796875 17.296875 
C 13.5 18.203125 13 18.703125 12 18.703125 
L 6.296875 18.703125 
C 5.203125 18.703125 4.59375 18.09375 4.796875 17 
C 6.5 7.59375 15.5 -1 30.09375 -1 
C 46 -1 54.296875 8.796875 54.296875 20.796875 
C 54.296875 29.203125 49.90625 35.703125 40.40625 38.703125 
z
" id="Gravity-Regular-51"/>
      </defs>
      <g style="fill:#f1f2f3;" transform="translate(259.653184 322.043375)scale(0.1 -0.1)">
       <use xlink:href="#Gravity-Regular-51"/>
      </g>
     </g>
    </g>
    <g id="xtick_5">
     <g id="line2d_9">
      <path clip-path="url(#p8dc06d0857)" d="M 317.062235 307.584 
L 317.062235 41.472 
" style="fill:none;stroke:#4f4845;stroke-linecap:square;"/>
     </g>
     <g id="line2d_10">
      <g>
       <use style="fill:#f1f2f3;stroke:#f1f2f3;stroke-width:0.8;" x="317.062235" xlink:href="#m1c3496eee6" y="307.584"/>
      </g>
     </g>
     <g id="text_5">
      <!-- 4 -->
      <defs>
       <path d="M 59.40625 22.703125 
C 59.40625 23.703125 58.796875 24.296875 57.796875 24.296875 
L 47.59375 24.296875 
L 47.296875 71.203125 
C 47.296875 72.203125 46.703125 72.796875 45.703125 72.796875 
L 40.09375 72.796875 
C 38.90625 72.796875 38.40625 72.40625 37.59375 71.296875 
L 5.5 26.40625 
C 4.796875 25.296875 4.59375 24.5 4.59375 22.5 
L 4.59375 18.296875 
C 4.59375 17.296875 5.203125 16.703125 6.203125 16.703125 
L 38.796875 16.703125 
L 38.703125 1.59375 
C 38.703125 0.59375 39.296875 0 40.296875 0 
L 46.09375 0 
C 47.09375 0 47.703125 0.59375 47.703125 1.59375 
L 47.59375 16.703125 
L 57.796875 16.703125 
C 58.796875 16.703125 59.40625 17.296875 59.40625 18.296875 
z
M 38.796875 24.296875 
L 13.40625 24.296875 
L 13.40625 24.59375 
L 38.5 60.09375 
L 39 60.09375 
z
" id="Gravity-Regular-52"/>
      </defs>
      <g style="fill:#f1f2f3;" transform="translate(313.862235 322.043375)scale(0.1 -0.1)">
       <use xlink:href="#Gravity-Regular-52"/>
      </g>
     </g>
    </g>
    <g id="xtick_6">
     <g id="line2d_11">
      <path clip-path="url(#p8dc06d0857)" d="M 371.525973 307.584 
L 371.525973 41.472 
" style="fill:none;stroke:#4f4845;stroke-linecap:square;"/>
     </g>
     <g id="line2d_12">
      <g>
       <use style="fill:#f1f2f3;stroke:#f1f2f3;stroke-width:0.8;" x="371.525973" xlink:href="#m1c3496eee6" y="307.584"/>
      </g>
     </g>
     <g id="text_6">
      <!-- 5 -->
      <defs>
       <path d="M 51.5 71.203125 
C 51.5 72.203125 50.90625 72.796875 49.90625 72.796875 
L 13.296875 72.796875 
C 12.296875 72.796875 11.796875 72.296875 11.703125 71.296875 
L 8.40625 35.796875 
C 8.296875 34.796875 8.796875 34.203125 9.796875 34.09375 
L 15 33.90625 
C 15.796875 33.796875 16.296875 34 17 34.5 
C 20.40625 36.90625 24.703125 38.59375 30.09375 38.59375 
C 40.40625 38.59375 46 32.5 46 22.5 
C 46 12.296875 40.09375 6.796875 29.90625 6.796875 
C 21.203125 6.796875 15.5 10.796875 13.703125 17.296875 
C 13.5 18.203125 12.90625 18.703125 12 18.703125 
L 6.296875 18.703125 
C 5.203125 18.703125 4.59375 18.09375 4.796875 17 
C 6.5 7.59375 15.703125 -1 30.203125 -1 
C 46.296875 -1 54.5 9.59375 54.5 22.5 
C 54.5 36 45.703125 46.40625 31.203125 46.40625 
C 26.296875 46.40625 21.90625 45.203125 17.703125 42.796875 
L 17 42.796875 
L 19 64.703125 
L 49.90625 64.703125 
C 50.90625 64.703125 51.5 65.296875 51.5 66.296875 
z
" id="Gravity-Regular-53"/>
      </defs>
      <g style="fill:#f1f2f3;" transform="translate(368.571286 322.043375)scale(0.1 -0.1)">
       <use xlink:href="#Gravity-Regular-53"/>
      </g>
     </g>
    </g>
    <g id="xtick_7">
     <g id="line2d_13">
      <path clip-path="url(#p8dc06d0857)" d="M 425.989712 307.584 
L 425.989712 41.472 
" style="fill:none;stroke:#4f4845;stroke-linecap:square;"/>
     </g>
     <g id="line2d_14">
      <g>
       <use style="fill:#f1f2f3;stroke:#f1f2f3;stroke-width:0.8;" x="425.989712" xlink:href="#m1c3496eee6" y="307.584"/>
      </g>
     </g>
     <g id="text_7">
      <!-- 6 -->
      <defs>
       <path d="M 32.5 44.703125 
C 25.59375 44.703125 19.703125 42.40625 14.796875 39.203125 
L 13.90625 39.203125 
C 15.09375 56.40625 21.703125 66.296875 32.703125 66.296875 
C 39.203125 66.296875 44.40625 62.90625 46.5 57 
C 46.796875 56.09375 47.296875 55.703125 48.296875 55.703125 
L 53.296875 55.703125 
C 54.40625 55.703125 55 56.40625 54.703125 57.40625 
C 52.5 66.90625 44.90625 74.09375 33 74.09375 
C 16 74.09375 5.296875 58.796875 5.296875 33.796875 
C 5.296875 9.40625 16.703125 -1.296875 32.703125 -1.296875 
C 46.09375 -1.296875 56.90625 6.703125 56.90625 21.703125 
C 56.90625 35 47.09375 44.703125 32.5 44.703125 
z
M 32.296875 6.59375 
C 21.5 6.59375 14.296875 13.40625 13.703125 30.90625 
C 18.296875 34.5 24.40625 36.90625 31.296875 36.90625 
C 43.09375 36.90625 48.703125 29.59375 48.703125 21.296875 
C 48.703125 12 41.90625 6.59375 32.296875 6.59375 
z
" id="Gravity-Regular-54"/>
      </defs>
      <g style="fill:#f1f2f3;" transform="translate(422.914712 322.043375)scale(0.1 -0.1)">
       <use xlink:href="#Gravity-Regular-54"/>
      </g>
     </g>
    </g>
    <g id="xtick_8">
     <g id="line2d_15">
      <path clip-path="url(#p8dc06d0857)" d="M 480.45345 307.584 
L 480.45345 41.472 
" style="fill:none;stroke:#4f4845;stroke-linecap:square;"/>
     </g>
     <g id="line2d_16">
      <g>
       <use style="fill:#f1f2f3;stroke:#f1f2f3;stroke-width:0.8;" x="480.45345" xlink:href="#m1c3496eee6" y="307.584"/>
      </g>
     </g>
     <g id="text_8">
      <!-- 7 -->
      <defs>
       <path d="M 6.203125 72.796875 
C 5.203125 72.796875 4.59375 72.203125 4.59375 71.203125 
L 4.59375 66.40625 
C 4.59375 65.40625 5.203125 64.796875 6.203125 64.796875 
L 43.09375 64.796875 
L 43.09375 64.09375 
C 32.5 45.5 22.59375 24.703125 13.59375 1.90625 
C 13.203125 0.703125 13.703125 0 14.90625 0 
L 21.90625 0 
C 22.90625 0 23.40625 0.40625 23.796875 1.296875 
C 32.203125 24.5 41.59375 45.40625 51.90625 64.296875 
C 52.59375 65.5 52.90625 66.5 52.90625 67.40625 
L 52.90625 71.203125 
C 52.90625 72.203125 52.296875 72.796875 51.296875 72.796875 
z
" id="Gravity-Regular-55"/>
      </defs>
      <g style="fill:#f1f2f3;" transform="translate(477.57845 322.043375)scale(0.1 -0.1)">
       <use xlink:href="#Gravity-Regular-55"/>
      </g>
     </g>
    </g>
    <g id="xtick_9">
     <g id="line2d_17">
      <path clip-path="url(#p8dc06d0857)" d="M 534.917189 307.584 
L 534.917189 41.472 
" style="fill:none;stroke:#4f4845;stroke-linecap:square;"/>
     </g>
     <g id="line2d_18">
      <g>
       <use style="fill:#f1f2f3;stroke:#f1f2f3;stroke-width:0.8;" x="534.917189" xlink:href="#m1c3496eee6" y="307.584"/>
      </g>
     </g>
     <g id="text_9">
      <!-- 8 -->
      <defs>
       <path d="M 30.796875 74.5 
C 17.40625 74.5 8.703125 65.90625 8.703125 54.40625 
C 8.703125 46.90625 12.40625 41.90625 17.796875 39.09375 
L 17.796875 38.703125 
C 11.203125 35.90625 5.296875 29.5 5.296875 19.703125 
C 5.296875 6.703125 15.59375 -1.703125 30.796875 -1.703125 
C 46.203125 -1.703125 56.296875 6.703125 56.296875 19.703125 
C 56.296875 29.203125 50.90625 35.90625 43.296875 38.703125 
L 43.296875 39 
C 48.90625 41.796875 52.90625 46.90625 52.90625 54.59375 
C 52.90625 65.796875 44.09375 74.5 30.796875 74.5 
z
M 30.796875 67 
C 39.09375 67 44.59375 61.59375 44.59375 54.203125 
C 44.59375 47 39.40625 41.40625 30.796875 41.40625 
C 22.09375 41.40625 17 47 17 54.203125 
C 17 61.59375 22.40625 67 30.796875 67 
z
M 30.796875 34.90625 
C 40.90625 34.90625 47.59375 28.703125 47.59375 20.09375 
C 47.59375 11.703125 41.296875 6.09375 30.796875 6.09375 
C 20.296875 6.09375 14 11.703125 14 20.09375 
C 14 28.703125 20.703125 34.90625 30.796875 34.90625 
z
" id="Gravity-Regular-56"/>
      </defs>
      <g style="fill:#f1f2f3;" transform="translate(531.837501 322.043375)scale(0.1 -0.1)">
       <use xlink:href="#Gravity-Regular-56"/>
      </g>
     </g>
    </g>
    <g id="xtick_10">
     <g id="line2d_19">
      <path clip-path="url(#p8dc06d0857)" d="M 77.421785 307.584 
L 77.421785 41.472 
" style="fill:none;stroke:#3f3a38;stroke-dasharray:1.85,0.8;stroke-dashoffset:0;stroke-width:0.5;"/>
     </g>
     <g id="line2d_20">
      <defs>
       <path d="M 0 0 
L 0 2 
" id="mac0ff78ba7" style="stroke:#f1f2f3;stroke-width:0.6;"/>
      </defs>
      <g>
       <use style="fill:#f1f2f3;stroke:#f1f2f3;stroke-width:0.6;" x="77.421785" xlink:href="#mac0ff78ba7" y="307.584"/>
      </g>
     </g>
    </g>
    <g id="xtick_11">
     <g id="line2d_21">
      <path clip-path="url(#p8dc06d0857)" d="M 88.314533 307.584 
L 88.314533 41.472 
" style="fill:none;stroke:#3f3a38;stroke-dasharray:1.85,0.8;stroke-dashoffset:0;stroke-width:0.5;"/>
     </g>
     <g id="line2d_22">
      <g>
       <use style="fill:#f1f2f3;stroke:#f1f2f3;stroke-width:0.6;" x="88.314533" xlink:href="#mac0ff78ba7" y="307.584"/>
      </g>
     </g>
    </g>
    <g id="xtick_12">
     <g id="line2d_23">
      <path clip-path="url(#p8dc06d0857)" d="M 110.100029 307.584 
L 110.100029 41.472 
" style="fill:none;stroke:#3f3a38;stroke-dasharray:1.85,0.8;stroke-dashoffset:0;stroke-width:0.5;"/>
     </g>
     <g id="line2d_24">
      <g>
       <use style="fill:#f1f2f3;stroke:#f1f2f3;stroke-width:0.6;" x="110.100029" xlink:href="#mac0ff78ba7" y="307.584"/>
      </g>
     </g>
    </g>
    <g id="xtick_13">
     <g id="line2d_25">
      <path clip-path="url(#p8dc06d0857)" d="M 120.992776 307.584 
L 120.992776 41.472 
" style="fill:none;stroke:#3f3a38;stroke-dasharray:1.85,0.8;stroke-dashoffset:0;stroke-width:0.5;"/>
     </g>
     <g id="line2d_26">
      <g>
       <use style="fill:#f1f2f3;stroke:#f1f2f3;stroke-width:0.6;" x="120.992776" xlink:href="#mac0ff78ba7" y="307.584"/>
      </g>
     </g>
    </g>
    <g id="xtick_14">
     <g id="line2d_27">
      <path clip-path="url(#p8dc06d0857)" d="M 131.885524 307.584 
L 131.885524 41.472 
" style="fill:none;stroke:#3f3a38;stroke-dasharray:1.85,0.8;stroke-dashoffset:0;stroke-width:0.5;"/>
     </g>
     <g id="line2d_28">
      <g>
       <use style="fill:#f1f2f3;stroke:#f1f2f3;stroke-width:0.6;" x="131.885524" xlink:href="#mac0ff78ba7" y="307.584"/>
      </g>
     </g>
    </g>
    <g id="xtick_15">
     <g id="line2d_29">
      <path clip-path="url(#p8dc06d0857)" d="M 142.778272 307.584 
L 142.778272 41.472 
" style="fill:none;stroke:#3f3a38;stroke-dasharray:1.85,0.8;stroke-dashoffset:0;stroke-width:0.5;"/>
     </g>
     <g id="line2d_30">
      <g>
       <use style="fill:#f1f2f3;stroke:#f1f2f3;stroke-width:0.6;" x="142.778272" xlink:href="#mac0ff78ba7" y="307.584"/>
      </g>
     </g>
    </g>
    <g id="xtick_16">
     <g id="line2d_31">
      <path clip-path="url(#p8dc06d0857)" d="M 164.563767 307.584 
L 164.563767 41.472 
" style="fill:none;stroke:#3f3a38;stroke-dasharray:1.85,0.8;stroke-dashoffset:0;stroke-width:0.5;"/>
     </g>
     <g id="line2d_32">
      <g>
       <use style="fill:#f1f2f3;stroke:#f1f2f3;stroke-width:0.6;" x="164.563767" xlink:href="#mac0ff78ba7" y="307.584"/>
      </g>
     </g>
    </g>
    <g id="xtick_17">
     <g id="line2d_33">
      <path clip-path="url(#p8dc06d0857)" d="M 175.456515 307.584 
L 175.456515 41.472 
" style="fill:none;stroke:#3f3a38;stroke-dasharray:1.85,0.8;stroke-dashoffset:0;stroke-width:0.5;"/>
     </g>
     <g id="line2d_34">
      <g>
       <use style="fill:#f1f2f3;stroke:#f1f2f3;stroke-width:0.6;" x="175.456515" xlink:href="#mac0ff78ba7" y="307.584"/>
      </g>
     </g>
    </g>
    <g id="xtick_18">
     <g id="line2d_35">
      <path clip-path="url(#p8dc06d0857)" d="M 186.349263 307.584 
L 186.349263 41.472 
" style="fill:none;stroke:#3f3a38;stroke-dasharray:1.85,0.8;stroke-dashoffset:0;stroke-width:0.5;"/>
     </g>
     <g id="line2d_36">
      <g>
       <use style="fill:#f1f2f3;stroke:#f1f2f3;stroke-width:0.6;" x="186.349263" xlink:href="#mac0ff78ba7" y="307.584"/>
      </g>
     </g>
    </g>
    <g id="xtick_19">
     <g id="line2d_37">
      <path clip-path="url(#p8dc06d0857)" d="M 197.24201 307.584 
L 197.24201 41.472 
" style="fill:none;stroke:#3f3a38;stroke-dasharray:1.85,0.8;stroke-dashoffset:0;stroke-width:0.5;"/>
     </g>
     <g id="line2d_38">
      <g>
       <use style="fill:#f1f2f3;stroke:#f1f2f3;stroke-width:0.6;" x="197.24201" xlink:href="#mac0ff78ba7" y="307.584"/>
      </g>
     </g>
    </g>
    <g id="xtick_20">
     <g id="line2d_39">
      <path clip-path="url(#p8dc06d0857)" d="M 219.027506 307.584 
L 219.027506 41.472 
" style="fill:none;stroke:#3f3a38;stroke-dasharray:1.85,0.8;stroke-dashoffset:0;stroke-width:0.5;"/>
     </g>
     <g id="line2d_40">
      <g>
       <use style="fill:#f1f2f3;stroke:#f1f2f3;stroke-width:0.6;" x="219.027506" xlink:href="#mac0ff78ba7" y="307.584"/>
      </g>
     </g>
    </g>
    <g id="xtick_21">
     <g id="line2d_41">
      <path clip-path="url(#p8dc06d0857)" d="M 229.920253 307.584 
L 229.920253 41.472 
" style="fill:none;stroke:#3f3a38;stroke-dasharray:1.85,0.8;stroke-dashoffset:0;stroke-width:0.5;"/>
     </g>
     <g id="line2d_42">
      <g>
       <use style="fill:#f1f2f3;stroke:#f1f2f3;stroke-width:0.6;" x="229.920253" xlink:href="#mac0ff78ba7" y="307.584"/>
      </g>
     </g>
    </g>
    <g id="xtick_22">
     <g id="line2d_43">
      <path clip-path="url(#p8dc06d0857)" d="M 240.813001 307.584 
L 240.813001 41.472 
" style="fill:none;stroke:#3f3a38;stroke-dasharray:1.85,0.8;stroke-dashoffset:0;stroke-width:0.5;"/>
     </g>
     <g id="line2d_44">
      <g>
       <use style="fill:#f1f2f3;stroke:#f1f2f3;stroke-width:0.6;" x="240.813001" xlink:href="#mac0ff78ba7" y="307.584"/>
      </g>
     </g>
    </g>
    <g id="xtick_23">
     <g id="line2d_45">
      <path clip-path="url(#p8dc06d0857)" d="M 251.705749 307.584 
L 251.705749 41.472 
" style="fill:none;stroke:#3f3a38;stroke-dasharray:1.85,0.8;stroke-dashoffset:0;stroke-width:0.5;"/>
     </g>
     <g id="line2d_46">
      <g>
       <use style="fill:#f1f2f3;stroke:#f1f2f3;stroke-width:0.6;" x="251.705749" xlink:href="#mac0ff78ba7" y="307.584"/>
      </g>
     </g>
    </g>
    <g id="xtick_24">
     <g id="line2d_47">
      <path clip-path="url(#p8dc06d0857)" d="M 273.491244 307.584 
L 273.491244 41.472 
" style="fill:none;stroke:#3f3a38;stroke-dasharray:1.85,0.8;stroke-dashoffset:0;stroke-width:0.5;"/>
     </g>
     <g id="line2d_48">
      <g>
       <use style="fill:#f1f2f3;stroke:#f1f2f3;stroke-width:0.6;" x="273.491244" xlink:href="#mac0ff78ba7" y="307.584"/>
      </g>
     </g>
    </g>
    <g id="xtick_25">
     <g id="line2d_49">
      <path clip-path="url(#p8dc06d0857)" d="M 284.383992 307.584 
L 284.383992 41.472 
" style="fill:none;stroke:#3f3a38;stroke-dasharray:1.85,0.8;stroke-dashoffset:0;stroke-width:0.5;"/>
     </g>
     <g id="line2d_50">
      <g>
       <use style="fill:#f1f2f3;stroke:#f1f2f3;stroke-width:0.6;" x="284.383992" xlink:href="#mac0ff78ba7" y="307.584"/>
      </g>
     </g>
    </g>
    <g id="xtick_26">
     <g id="line2d_51">
      <path clip-path="url(#p8dc06d0857)" d="M 295.27674 307.584 
L 295.27674 41.472 
" style="fill:none;stroke:#3f3a38;stroke-dasharray:1.85,0.8;stroke-dashoffset:0;stroke-width:0.5;"/>
     </g>
     <g id="line2d_52">
      <g>
       <use style="fill:#f1f2f3;stroke:#f1f2f3;stroke-width:0.6;" x="295.27674" xlink:href="#mac0ff78ba7" y="307.584"/>
      </g>
     </g>
    </g>
    <g id="xtick_27">
     <g id="line2d_53">
      <path clip-path="url(#p8dc06d0857)" d="M 306.169487 307.584 
L 306.169487 41.472 
" style="fill:none;stroke:#3f3a38;stroke-dasharray:1.85,0.8;stroke-dashoffset:0;stroke-width:0.5;"/>
     </g>
     <g id="line2d_54">
      <g>
       <use style="fill:#f1f2f3;stroke:#f1f2f3;stroke-width:0.6;" x="306.169487" xlink:href="#mac0ff78ba7" y="307.584"/>
      </g>
     </g>
    </g>
    <g id="xtick_28">
     <g id="line2d_55">
      <path clip-path="url(#p8dc06d0857)" d="M 327.954983 307.584 
L 327.954983 41.472 
" style="fill:none;stroke:#3f3a38;stroke-dasharray:1.85,0.8;stroke-dashoffset:0;stroke-width:0.5;"/>
     </g>
     <g id="line2d_56">
      <g>
       <use style="fill:#f1f2f3;stroke:#f1f2f3;stroke-width:0.6;" x="327.954983" xlink:href="#mac0ff78ba7" y="307.584"/>
      </g>
     </g>
    </g>
    <g id="xtick_29">
     <g id="line2d_57">
      <path clip-path="url(#p8dc06d0857)" d="M 338.84773 307.584 
L 338.84773 41.472 
" style="fill:none;stroke:#3f3a38;stroke-dasharray:1.85,0.8;stroke-dashoffset:0;stroke-width:0.5;"/>
     </g>
     <g id="line2d_58">
      <g>
       <use style="fill:#f1f2f3;stroke:#f1f2f3;stroke-width:0.6;" x="338.84773" xlink:href="#mac0ff78ba7" y="307.584"/>
      </g>
     </g>
    </g>
    <g id="xtick_30">
     <g id="line2d_59">
      <path clip-path="url(#p8dc06d0857)" d="M 349.740478 307.584 
L 349.740478 41.472 
" style="fill:none;stroke:#3f3a38;stroke-dasharray:1.85,0.8;stroke-dashoffset:0;stroke-width:0.5;"/>
     </g>
     <g id="line2d_60">
      <g>
       <use style="fill:#f1f2f3;stroke:#f1f2f3;stroke-width:0.6;" x="349.740478" xlink:href="#mac0ff78ba7" y="307.584"/>
      </g>
     </g>
    </g>
    <g id="xtick_31">
     <g id="line2d_61">
      <path clip-path="url(#p8dc06d0857)" d="M 360.633226 307.584 
L 360.633226 41.472 
" style="fill:none;stroke:#3f3a38;stroke-dasharray:1.85,0.8;stroke-dashoffset:0;stroke-width:0.5;"/>
     </g>
     <g id="line2d_62">
      <g>
       <use style="fill:#f1f2f3;stroke:#f1f2f3;stroke-width:0.6;" x="360.633226" xlink:href="#mac0ff78ba7" y="307.584"/>
      </g>
     </g>
    </g>
    <g id="xtick_32">
     <g id="line2d_63">
      <path clip-path="url(#p8dc06d0857)" d="M 382.418721 307.584 
L 382.418721 41.472 
" style="fill:none;stroke:#3f3a38;stroke-dasharray:1.85,0.8;stroke-dashoffset:0;stroke-width:0.5;"/>
     </g>
     <g id="line2d_64">
      <g>
       <use style="fill:#f1f2f3;stroke:#f1f2f3;stroke-width:0.6;" x="382.418721" xlink:href="#mac0ff78ba7" y="307.584"/>
      </g>
     </g>
    </g>
    <g id="xtick_33">
     <g id="line2d_65">
      <path clip-path="url(#p8dc06d0857)" d="M 393.311469 307.584 
L 393.311469 41.472 
" style="fill:none;stroke:#3f3a38;stroke-dasharray:1.85,0.8;stroke-dashoffset:0;stroke-width:0.5;"/>
     </g>
     <g id="line2d_66">
      <g>
       <use style="fill:#f1f2f3;stroke:#f1f2f3;stroke-width:0.6;" x="393.311469" xlink:href="#mac0ff78ba7" y="307.584"/>
      </g>
     </g>
    </g>
    <g id="xtick_34">
     <g id="line2d_67">
      <path clip-path="url(#p8dc06d0857)" d="M 404.204217 307.584 
L 404.204217 41.472 
" style="fill:none;stroke:#3f3a38;stroke-dasharray:1.85,0.8;stroke-dashoffset:0;stroke-width:0.5;"/>
     </g>
     <g id="line2d_68">
      <g>
       <use style="fill:#f1f2f3;stroke:#f1f2f3;stroke-width:0.6;" x="404.204217" xlink:href="#mac0ff78ba7" y="307.584"/>
      </g>
     </g>
    </g>
    <g id="xtick_35">
     <g id="line2d_69">
      <path clip-path="url(#p8dc06d0857)" d="M 415.096964 307.584 
L 415.096964 41.472 
" style="fill:none;stroke:#3f3a38;stroke-dasharray:1.85,0.8;stroke-dashoffset:0;stroke-width:0.5;"/>
     </g>
     <g id="line2d_70">
      <g>
       <use style="fill:#f1f2f3;stroke:#f1f2f3;stroke-width:0.6;" x="415.096964" xlink:href="#mac0ff78ba7" y="307.584"/>
      </g>
     </g>
    </g>
    <g id="xtick_36">
     <g id="line2d_71">
      <path clip-path="url(#p8dc06d0857)" d="M 436.88246 307.584 
L 436.88246 41.472 
" style="fill:none;stroke:#3f3a38;stroke-dasharray:1.85,0.8;stroke-dashoffset:0;stroke-width:0.5;"/>
     </g>
     <g id="line2d_72">
      <g>
       <use style="fill:#f1f2f3;stroke:#f1f2f3;stroke-width:0.6;" x="436.88246" xlink:href="#mac0ff78ba7" y="307.584"/>
      </g>
     </g>
    </g>
    <g id="xtick_37">
     <g id="line2d_73">
      <path clip-path="url(#p8dc06d0857)" d="M 447.775207 307.584 
L 447.775207 41.472 
" style="fill:none;stroke:#3f3a38;stroke-dasharray:1.85,0.8;stroke-dashoffset:0;stroke-width:0.5;"/>
     </g>
     <g id="line2d_74">
      <g>
       <use style="fill:#f1f2f3;stroke:#f1f2f3;stroke-width:0.6;" x="447.775207" xlink:href="#mac0ff78ba7" y="307.584"/>
      </g>
     </g>
    </g>
    <g id="xtick_38">
     <g id="line2d_75">
      <path clip-path="url(#p8dc06d0857)" d="M 458.667955 307.584 
L 458.667955 41.472 
" style="fill:none;stroke:#3f3a38;stroke-dasharray:1.85,0.8;stroke-dashoffset:0;stroke-width:0.5;"/>
     </g>
     <g id="line2d_76">
      <g>
       <use style="fill:#f1f2f3;stroke:#f1f2f3;stroke-width:0.6;" x="458.667955" xlink:href="#mac0ff78ba7" y="307.584"/>
      </g>
     </g>
    </g>
    <g id="xtick_39">
     <g id="line2d_77">
      <path clip-path="url(#p8dc06d0857)" d="M 469.560703 307.584 
L 469.560703 41.472 
" style="fill:none;stroke:#3f3a38;stroke-dasharray:1.85,0.8;stroke-dashoffset:0;stroke-width:0.5;"/>
     </g>
     <g id="line2d_78">
      <g>
       <use style="fill:#f1f2f3;stroke:#f1f2f3;stroke-width:0.6;" x="469.560703" xlink:href="#mac0ff78ba7" y="307.584"/>
      </g>
     </g>
    </g>
    <g id="xtick_40">
     <g id="line2d_79">
      <path clip-path="url(#p8dc06d0857)" d="M 491.346198 307.584 
L 491.346198 41.472 
" style="fill:none;stroke:#3f3a38;stroke-dasharray:1.85,0.8;stroke-dashoffset:0;stroke-width:0.5;"/>
     </g>
     <g id="line2d_80">
      <g>
       <use style="fill:#f1f2f3;stroke:#f1f2f3;stroke-width:0.6;" x="491.346198" xlink:href="#mac0ff78ba7" y="307.584"/>
      </g>
     </g>
    </g>
    <g id="xtick_41">
     <g id="line2d_81">
      <path clip-path="url(#p8dc06d0857)" d="M 502.238946 307.584 
L 502.238946 41.472 
" style="fill:none;stroke:#3f3a38;stroke-dasharray:1.85,0.8;stroke-dashoffset:0;stroke-width:0.5;"/>
     </g>
     <g id="line2d_82">
      <g>
       <use style="fill:#f1f2f3;stroke:#f1f2f3;stroke-width:0.6;" x="502.238946" xlink:href="#mac0ff78ba7" y="307.584"/>
      </g>
     </g>
    </g>
    <g id="xtick_42">
     <g id="line2d_83">
      <path clip-path="url(#p8dc06d0857)" d="M 513.131694 307.584 
L 513.131694 41.472 
" style="fill:none;stroke:#3f3a38;stroke-dasharray:1.85,0.8;stroke-dashoffset:0;stroke-width:0.5;"/>
     </g>
     <g id="line2d_84">
      <g>
       <use style="fill:#f1f2f3;stroke:#f1f2f3;stroke-width:0.6;" x="513.131694" xlink:href="#mac0ff78ba7" y="307.584"/>
      </g>
     </g>
    </g>
    <g id="xtick_43">
     <g id="line2d_85">
      <path clip-path="url(#p8dc06d0857)" d="M 524.024441 307.584 
L 524.024441 41.472 
" style="fill:none;stroke:#3f3a38;stroke-dasharray:1.85,0.8;stroke-dashoffset:0;stroke-width:0.5;"/>
     </g>
     <g id="line2d_86">
      <g>
       <use style="fill:#f1f2f3;stroke:#f1f2f3;stroke-width:0.6;" x="524.024441" xlink:href="#mac0ff78ba7" y="307.584"/>
      </g>
     </g>
    </g>
    <g id="xtick_44">
     <g id="line2d_87">
      <path clip-path="url(#p8dc06d0857)" d="M 545.809937 307.584 
L 545.809937 41.472 
" style="fill:none;stroke:#3f3a38;stroke-dasharray:1.85,0.8;stroke-dashoffset:0;stroke-width:0.5;"/>
     </g>
     <g id="line2d_88">
      <g>
       <use style="fill:#f1f2f3;stroke:#f1f2f3;stroke-width:0.6;" x="545.809937" xlink:href="#mac0ff78ba7" y="307.584"/>
      </g>
     </g>
    </g>
    <g id="xtick_45">
     <g id="line2d_89">
      <path clip-path="url(#p8dc06d0857)" d="M 556.702684 307.584 
L 556.702684 41.472 
" style="fill:none;stroke:#3f3a38;stroke-dasharray:1.85,0.8;stroke-dashoffset:0;stroke-width:0.5;"/>
     </g>
     <g id="line2d_90">
      <g>
       <use style="fill:#f1f2f3;stroke:#f1f2f3;stroke-width:0.6;" x="556.702684" xlink:href="#mac0ff78ba7" y="307.584"/>
      </g>
     </g>
    </g>
    <g id="text_10">
     <!-- Time -->
     <defs>
      <path d="M 57.09375 71.09375 
C 57.09375 72.09375 56.5 72.703125 55.5 72.703125 
L 3 72.703125 
C 2 72.703125 1.40625 72.09375 1.40625 71.09375 
L 1.40625 66.296875 
C 1.40625 65.296875 2 64.703125 3 64.703125 
L 24.90625 64.703125 
L 24.59375 1.59375 
C 24.59375 0.59375 25.203125 0 26.203125 0 
L 32.40625 0 
C 33.40625 0 34 0.59375 34 1.59375 
L 33.703125 64.703125 
L 55.5 64.703125 
C 56.5 64.703125 57.09375 65.296875 57.09375 66.296875 
z
" id="Gravity-Regular-84"/>
      <path d="M 17.40625 73 
C 17.40625 74 16.796875 74.59375 15.796875 74.59375 
L 10.5 74.59375 
C 9.5 74.59375 8.90625 74 8.90625 73 
L 8.90625 66.203125 
C 8.90625 65.203125 9.5 64.59375 10.5 64.59375 
L 15.796875 64.59375 
C 16.796875 64.59375 17.40625 65.203125 17.40625 66.203125 
z
M 17.296875 51.5 
C 17.296875 52.5 16.703125 53.09375 15.703125 53.09375 
L 10.40625 53.09375 
C 9.40625 53.09375 8.796875 52.5 8.796875 51.5 
L 8.40625 1.59375 
C 8.40625 0.59375 9 0 10 0 
L 16 0 
C 17 0 17.59375 0.59375 17.59375 1.59375 
z
" id="Gravity-Regular-105"/>
      <path d="M 63.5 54.296875 
C 56.09375 54.296875 50.796875 50.40625 46.5 44.296875 
L 45.796875 44.296875 
C 43.5 51.203125 38.5 54.296875 31.90625 54.296875 
C 25.09375 54.296875 19.703125 50.40625 15.703125 45.203125 
L 15.203125 45.203125 
L 15.203125 51.5 
C 15.203125 52.5 14.59375 53.09375 13.59375 53.09375 
L 8.203125 53.09375 
C 7.203125 53.09375 6.59375 52.5 6.59375 51.5 
L 6.296875 1.59375 
C 6.296875 0.59375 6.90625 0 7.90625 0 
L 13.90625 0 
C 14.90625 0 15.5 0.59375 15.5 1.59375 
L 15.296875 29.796875 
C 16.40625 41.296875 22.40625 45.90625 29 45.90625 
C 35.203125 45.90625 38.796875 41.796875 38.703125 32.796875 
L 38.59375 1.59375 
C 38.59375 0.59375 39.203125 0 40.203125 0 
L 46.09375 0 
C 47.09375 0 47.703125 0.59375 47.703125 1.59375 
L 47.59375 29.703125 
C 48.59375 40.703125 54.09375 45.90625 61 45.90625 
C 67.203125 45.90625 70.796875 41.796875 70.703125 32.796875 
L 70.5 1.59375 
C 70.5 0.59375 71.09375 0 72.09375 0 
L 78.09375 0 
C 79.09375 0 79.703125 0.59375 79.703125 1.59375 
L 79.5 35 
C 79.5 47.59375 73.40625 54.296875 63.5 54.296875 
z
" id="Gravity-Regular-109"/>
      <path d="M 29.59375 54.203125 
C 14.703125 54.203125 4.40625 42.90625 4.40625 26.203125 
C 4.40625 9.796875 14.5 -1.296875 29 -1.296875 
C 38.90625 -1.296875 46.796875 3.703125 50.796875 12.796875 
C 51.203125 13.90625 50.703125 14.703125 49.5 14.703125 
L 44.40625 14.703125 
C 43.5 14.703125 42.90625 14.40625 42.5 13.59375 
C 39.59375 8.796875 35.59375 6.5 29.703125 6.5 
C 19.703125 6.5 13.296875 13.59375 13.203125 25.296875 
L 50.59375 25.296875 
C 51.703125 25.296875 52.203125 25.796875 52.296875 26.90625 
C 52.796875 42.09375 45 54.203125 29.59375 54.203125 
z
M 28.90625 46.5 
C 38 46.5 43.09375 40 43.40625 32.203125 
L 13.703125 32.203125 
C 15.09375 40.203125 20 46.5 28.90625 46.5 
z
" id="Gravity-Regular-101"/>
     </defs>
     <g style="fill:#f1f2f3;" transform="translate(305.950156 335.70275)scale(0.1 -0.1)">
      <use xlink:href="#Gravity-Regular-84"/>
      <use x="58.499985" xlink:href="#Gravity-Regular-105"/>
      <use x="84.599976" xlink:href="#Gravity-Regular-109"/>
      <use x="170.999969" xlink:href="#Gravity-Regular-101"/>
     </g>
    </g>
    <g id="text_11">
     <!-- 1e10 -->
     <g style="fill:#f1f2f3;" transform="translate(535.19875 334.70275)scale(0.1 -0.1)">
      <use xlink:href="#Gravity-Regular-49"/>
      <use x="51.399994" xlink:href="#Gravity-Regular-101"/>
      <use x="108.199982" xlink:href="#Gravity-Regular-49"/>
      <use x="159.599976" xlink:href="#Gravity-Regular-48"/>
     </g>
    </g>
   </g>
   <g id="matplotlib.axis_2">
    <g id="ytick_1">
     <g id="line2d_91">
      <path clip-path="url(#p8dc06d0857)" d="M 77.4 267.938391 
L 557.28 267.938391 
" style="fill:none;stroke:#4f4845;stroke-linecap:square;"/>
     </g>
     <g id="line2d_92">
      <defs>
       <path d="M 0 0 
L -3.5 0 
" id="mbb09041367" style="stroke:#f1f2f3;stroke-width:0.8;"/>
      </defs>
      <g>
       <use style="fill:#f1f2f3;stroke:#f1f2f3;stroke-width:0.8;" x="77.4" xlink:href="#mbb09041367" y="267.938391"/>
      </g>
     </g>
     <g id="text_12">
      <!-- 100 -->
      <g style="fill:#f1f2f3;" transform="translate(53.01875 271.668079)scale(0.1 -0.1)">
       <use xlink:href="#Gravity-Regular-49"/>
       <use x="51.399994" xlink:href="#Gravity-Regular-48"/>
       <use x="112.599991" xlink:href="#Gravity-Regular-48"/>
      </g>
     </g>
    </g>
    <g id="ytick_2">
     <g id="line2d_93">
      <path clip-path="url(#p8dc06d0857)" d="M 77.4 224.892128 
L 557.28 224.892128 
" style="fill:none;stroke:#4f4845;stroke-linecap:square;"/>
     </g>
     <g id="line2d_94">
      <g>
       <use style="fill:#f1f2f3;stroke:#f1f2f3;stroke-width:0.8;" x="77.4" xlink:href="#mbb09041367" y="224.892128"/>
      </g>
     </g>
     <g id="text_13">
      <!-- 150 -->
      <g style="fill:#f1f2f3;" transform="translate(53.229687 228.621816)scale(0.1 -0.1)">
       <use xlink:href="#Gravity-Regular-49"/>
       <use x="51.399994" xlink:href="#Gravity-Regular-53"/>
       <use x="110.499985" xlink:href="#Gravity-Regular-48"/>
      </g>
     </g>
    </g>
    <g id="ytick_3">
     <g id="line2d_95">
      <path clip-path="url(#p8dc06d0857)" d="M 77.4 181.845865 
L 557.28 181.845865 
" style="fill:none;stroke:#4f4845;stroke-linecap:square;"/>
     </g>
     <g id="line2d_96">
      <g>
       <use style="fill:#f1f2f3;stroke:#f1f2f3;stroke-width:0.8;" x="77.4" xlink:href="#mbb09041367" y="181.845865"/>
      </g>
     </g>
     <g id="text_14">
      <!-- 200 -->
      <g style="fill:#f1f2f3;" transform="translate(52.139062 185.575552)scale(0.1 -0.1)">
       <use xlink:href="#Gravity-Regular-50"/>
       <use x="60.199997" xlink:href="#Gravity-Regular-48"/>
       <use x="121.399994" xlink:href="#Gravity-Regular-48"/>
      </g>
     </g>
    </g>
    <g id="ytick_4">
     <g id="line2d_97">
      <path clip-path="url(#p8dc06d0857)" d="M 77.4 138.799601 
L 557.28 138.799601 
" style="fill:none;stroke:#4f4845;stroke-linecap:square;"/>
     </g>
     <g id="line2d_98">
      <g>
       <use style="fill:#f1f2f3;stroke:#f1f2f3;stroke-width:0.8;" x="77.4" xlink:href="#mbb09041367" y="138.799601"/>
      </g>
     </g>
     <g id="text_15">
      <!-- 250 -->
      <g style="fill:#f1f2f3;" transform="translate(52.35 142.529289)scale(0.1 -0.1)">
       <use xlink:href="#Gravity-Regular-50"/>
       <use x="60.199997" xlink:href="#Gravity-Regular-53"/>
       <use x="119.299988" xlink:href="#Gravity-Regular-48"/>
      </g>
     </g>
    </g>
    <g id="ytick_5">
     <g id="line2d_99">
      <path clip-path="url(#p8dc06d0857)" d="M 77.4 95.753338 
L 557.28 95.753338 
" style="fill:none;stroke:#4f4845;stroke-linecap:square;"/>
     </g>
     <g id="line2d_100">
      <g>
       <use style="fill:#f1f2f3;stroke:#f1f2f3;stroke-width:0.8;" x="77.4" xlink:href="#mbb09041367" y="95.753338"/>
      </g>
     </g>
     <g id="text_16">
      <!-- 300 -->
      <g style="fill:#f1f2f3;" transform="translate(52.26875 99.483026)scale(0.1 -0.1)">
       <use xlink:href="#Gravity-Regular-51"/>
       <use x="58.899994" xlink:href="#Gravity-Regular-48"/>
       <use x="120.099991" xlink:href="#Gravity-Regular-48"/>
      </g>
     </g>
    </g>
    <g id="ytick_6">
     <g id="line2d_101">
      <path clip-path="url(#p8dc06d0857)" d="M 77.4 52.707075 
L 557.28 52.707075 
" style="fill:none;stroke:#4f4845;stroke-linecap:square;"/>
     </g>
     <g id="line2d_102">
      <g>
       <use style="fill:#f1f2f3;stroke:#f1f2f3;stroke-width:0.8;" x="77.4" xlink:href="#mbb09041367" y="52.707075"/>
      </g>
     </g>
     <g id="text_17">
      <!-- 350 -->
      <g style="fill:#f1f2f3;" transform="translate(52.479687 56.436762)scale(0.1 -0.1)">
       <use xlink:href="#Gravity-Regular-51"/>
       <use x="58.899994" xlink:href="#Gravity-Regular-53"/>
       <use x="117.999985" xlink:href="#Gravity-Regular-48"/>
      </g>
     </g>
    </g>
    <g id="ytick_7">
     <g id="line2d_103">
      <path clip-path="url(#p8dc06d0857)" d="M 77.4 302.375402 
L 557.28 302.375402 
" style="fill:none;stroke:#3f3a38;stroke-dasharray:1.85,0.8;stroke-dashoffset:0;stroke-width:0.5;"/>
     </g>
     <g id="line2d_104">
      <defs>
       <path d="M 0 0 
L -2 0 
" id="m29c01e3084" style="stroke:#f1f2f3;stroke-width:0.6;"/>
      </defs>
      <g>
       <use style="fill:#f1f2f3;stroke:#f1f2f3;stroke-width:0.6;" x="77.4" xlink:href="#m29c01e3084" y="302.375402"/>
      </g>
     </g>
    </g>
    <g id="ytick_8">
     <g id="line2d_105">
      <path clip-path="url(#p8dc06d0857)" d="M 77.4 293.766149 
L 557.28 293.766149 
" style="fill:none;stroke:#3f3a38;stroke-dasharray:1.85,0.8;stroke-dashoffset:0;stroke-width:0.5;"/>
     </g>
     <g id="line2d_106">
      <g>
       <use style="fill:#f1f2f3;stroke:#f1f2f3;stroke-width:0.6;" x="77.4" xlink:href="#m29c01e3084" y="293.766149"/>
      </g>
     </g>
    </g>
    <g id="ytick_9">
     <g id="line2d_107">
      <path clip-path="url(#p8dc06d0857)" d="M 77.4 285.156897 
L 557.28 285.156897 
" style="fill:none;stroke:#3f3a38;stroke-dasharray:1.85,0.8;stroke-dashoffset:0;stroke-width:0.5;"/>
     </g>
     <g id="line2d_108">
      <g>
       <use style="fill:#f1f2f3;stroke:#f1f2f3;stroke-width:0.6;" x="77.4" xlink:href="#m29c01e3084" y="285.156897"/>
      </g>
     </g>
    </g>
    <g id="ytick_10">
     <g id="line2d_109">
      <path clip-path="url(#p8dc06d0857)" d="M 77.4 276.547644 
L 557.28 276.547644 
" style="fill:none;stroke:#3f3a38;stroke-dasharray:1.85,0.8;stroke-dashoffset:0;stroke-width:0.5;"/>
     </g>
     <g id="line2d_110">
      <g>
       <use style="fill:#f1f2f3;stroke:#f1f2f3;stroke-width:0.6;" x="77.4" xlink:href="#m29c01e3084" y="276.547644"/>
      </g>
     </g>
    </g>
    <g id="ytick_11">
     <g id="line2d_111">
      <path clip-path="url(#p8dc06d0857)" d="M 77.4 259.329139 
L 557.28 259.329139 
" style="fill:none;stroke:#3f3a38;stroke-dasharray:1.85,0.8;stroke-dashoffset:0;stroke-width:0.5;"/>
     </g>
     <g id="line2d_112">
      <g>
       <use style="fill:#f1f2f3;stroke:#f1f2f3;stroke-width:0.6;" x="77.4" xlink:href="#m29c01e3084" y="259.329139"/>
      </g>
     </g>
    </g>
    <g id="ytick_12">
     <g id="line2d_113">
      <path clip-path="url(#p8dc06d0857)" d="M 77.4 250.719886 
L 557.28 250.719886 
" style="fill:none;stroke:#3f3a38;stroke-dasharray:1.85,0.8;stroke-dashoffset:0;stroke-width:0.5;"/>
     </g>
     <g id="line2d_114">
      <g>
       <use style="fill:#f1f2f3;stroke:#f1f2f3;stroke-width:0.6;" x="77.4" xlink:href="#m29c01e3084" y="250.719886"/>
      </g>
     </g>
    </g>
    <g id="ytick_13">
     <g id="line2d_115">
      <path clip-path="url(#p8dc06d0857)" d="M 77.4 242.110633 
L 557.28 242.110633 
" style="fill:none;stroke:#3f3a38;stroke-dasharray:1.85,0.8;stroke-dashoffset:0;stroke-width:0.5;"/>
     </g>
     <g id="line2d_116">
      <g>
       <use style="fill:#f1f2f3;stroke:#f1f2f3;stroke-width:0.6;" x="77.4" xlink:href="#m29c01e3084" y="242.110633"/>
      </g>
     </g>
    </g>
    <g id="ytick_14">
     <g id="line2d_117">
      <path clip-path="url(#p8dc06d0857)" d="M 77.4 233.501381 
L 557.28 233.501381 
" style="fill:none;stroke:#3f3a38;stroke-dasharray:1.85,0.8;stroke-dashoffset:0;stroke-width:0.5;"/>
     </g>
     <g id="line2d_118">
      <g>
       <use style="fill:#f1f2f3;stroke:#f1f2f3;stroke-width:0.6;" x="77.4" xlink:href="#m29c01e3084" y="233.501381"/>
      </g>
     </g>
    </g>
    <g id="ytick_15">
     <g id="line2d_119">
      <path clip-path="url(#p8dc06d0857)" d="M 77.4 216.282875 
L 557.28 216.282875 
" style="fill:none;stroke:#3f3a38;stroke-dasharray:1.85,0.8;stroke-dashoffset:0;stroke-width:0.5;"/>
     </g>
     <g id="line2d_120">
      <g>
       <use style="fill:#f1f2f3;stroke:#f1f2f3;stroke-width:0.6;" x="77.4" xlink:href="#m29c01e3084" y="216.282875"/>
      </g>
     </g>
    </g>
    <g id="ytick_16">
     <g id="line2d_121">
      <path clip-path="url(#p8dc06d0857)" d="M 77.4 207.673623 
L 557.28 207.673623 
" style="fill:none;stroke:#3f3a38;stroke-dasharray:1.85,0.8;stroke-dashoffset:0;stroke-width:0.5;"/>
     </g>
     <g id="line2d_122">
      <g>
       <use style="fill:#f1f2f3;stroke:#f1f2f3;stroke-width:0.6;" x="77.4" xlink:href="#m29c01e3084" y="207.673623"/>
      </g>
     </g>
    </g>
    <g id="ytick_17">
     <g id="line2d_123">
      <path clip-path="url(#p8dc06d0857)" d="M 77.4 199.06437 
L 557.28 199.06437 
" style="fill:none;stroke:#3f3a38;stroke-dasharray:1.85,0.8;stroke-dashoffset:0;stroke-width:0.5;"/>
     </g>
     <g id="line2d_124">
      <g>
       <use style="fill:#f1f2f3;stroke:#f1f2f3;stroke-width:0.6;" x="77.4" xlink:href="#m29c01e3084" y="199.06437"/>
      </g>
     </g>
    </g>
    <g id="ytick_18">
     <g id="line2d_125">
      <path clip-path="url(#p8dc06d0857)" d="M 77.4 190.455117 
L 557.28 190.455117 
" style="fill:none;stroke:#3f3a38;stroke-dasharray:1.85,0.8;stroke-dashoffset:0;stroke-width:0.5;"/>
     </g>
     <g id="line2d_126">
      <g>
       <use style="fill:#f1f2f3;stroke:#f1f2f3;stroke-width:0.6;" x="77.4" xlink:href="#m29c01e3084" y="190.455117"/>
      </g>
     </g>
    </g>
    <g id="ytick_19">
     <g id="line2d_127">
      <path clip-path="url(#p8dc06d0857)" d="M 77.4 173.236612 
L 557.28 173.236612 
" style="fill:none;stroke:#3f3a38;stroke-dasharray:1.85,0.8;stroke-dashoffset:0;stroke-width:0.5;"/>
     </g>
     <g id="line2d_128">
      <g>
       <use style="fill:#f1f2f3;stroke:#f1f2f3;stroke-width:0.6;" x="77.4" xlink:href="#m29c01e3084" y="173.236612"/>
      </g>
     </g>
    </g>
    <g id="ytick_20">
     <g id="line2d_129">
      <path clip-path="url(#p8dc06d0857)" d="M 77.4 164.627359 
L 557.28 164.627359 
" style="fill:none;stroke:#3f3a38;stroke-dasharray:1.85,0.8;stroke-dashoffset:0;stroke-width:0.5;"/>
     </g>
     <g id="line2d_130">
      <g>
       <use style="fill:#f1f2f3;stroke:#f1f2f3;stroke-width:0.6;" x="77.4" xlink:href="#m29c01e3084" y="164.627359"/>
      </g>
     </g>
    </g>
    <g id="ytick_21">
     <g id="line2d_131">
      <path clip-path="url(#p8dc06d0857)" d="M 77.4 156.018107 
L 557.28 156.018107 
" style="fill:none;stroke:#3f3a38;stroke-dasharray:1.85,0.8;stroke-dashoffset:0;stroke-width:0.5;"/>
     </g>
     <g id="line2d_132">
      <g>
       <use style="fill:#f1f2f3;stroke:#f1f2f3;stroke-width:0.6;" x="77.4" xlink:href="#m29c01e3084" y="156.018107"/>
      </g>
     </g>
    </g>
    <g id="ytick_22">
     <g id="line2d_133">
      <path clip-path="url(#p8dc06d0857)" d="M 77.4 147.408854 
L 557.28 147.408854 
" style="fill:none;stroke:#3f3a38;stroke-dasharray:1.85,0.8;stroke-dashoffset:0;stroke-width:0.5;"/>
     </g>
     <g id="line2d_134">
      <g>
       <use style="fill:#f1f2f3;stroke:#f1f2f3;stroke-width:0.6;" x="77.4" xlink:href="#m29c01e3084" y="147.408854"/>
      </g>
     </g>
    </g>
    <g id="ytick_23">
     <g id="line2d_135">
      <path clip-path="url(#p8dc06d0857)" d="M 77.4 130.190349 
L 557.28 130.190349 
" style="fill:none;stroke:#3f3a38;stroke-dasharray:1.85,0.8;stroke-dashoffset:0;stroke-width:0.5;"/>
     </g>
     <g id="line2d_136">
      <g>
       <use style="fill:#f1f2f3;stroke:#f1f2f3;stroke-width:0.6;" x="77.4" xlink:href="#m29c01e3084" y="130.190349"/>
      </g>
     </g>
    </g>
    <g id="ytick_24">
     <g id="line2d_137">
      <path clip-path="url(#p8dc06d0857)" d="M 77.4 121.581096 
L 557.28 121.581096 
" style="fill:none;stroke:#3f3a38;stroke-dasharray:1.85,0.8;stroke-dashoffset:0;stroke-width:0.5;"/>
     </g>
     <g id="line2d_138">
      <g>
       <use style="fill:#f1f2f3;stroke:#f1f2f3;stroke-width:0.6;" x="77.4" xlink:href="#m29c01e3084" y="121.581096"/>
      </g>
     </g>
    </g>
    <g id="ytick_25">
     <g id="line2d_139">
      <path clip-path="url(#p8dc06d0857)" d="M 77.4 112.971843 
L 557.28 112.971843 
" style="fill:none;stroke:#3f3a38;stroke-dasharray:1.85,0.8;stroke-dashoffset:0;stroke-width:0.5;"/>
     </g>
     <g id="line2d_140">
      <g>
       <use style="fill:#f1f2f3;stroke:#f1f2f3;stroke-width:0.6;" x="77.4" xlink:href="#m29c01e3084" y="112.971843"/>
      </g>
     </g>
    </g>
    <g id="ytick_26">
     <g id="line2d_141">
      <path clip-path="url(#p8dc06d0857)" d="M 77.4 104.362591 
L 557.28 104.362591 
" style="fill:none;stroke:#3f3a38;stroke-dasharray:1.85,0.8;stroke-dashoffset:0;stroke-width:0.5;"/>
     </g>
     <g id="line2d_142">
      <g>
       <use style="fill:#f1f2f3;stroke:#f1f2f3;stroke-width:0.6;" x="77.4" xlink:href="#m29c01e3084" y="104.362591"/>
      </g>
     </g>
    </g>
    <g id="ytick_27">
     <g id="line2d_143">
      <path clip-path="url(#p8dc06d0857)" d="M 77.4 87.144085 
L 557.28 87.144085 
" style="fill:none;stroke:#3f3a38;stroke-dasharray:1.85,0.8;stroke-dashoffset:0;stroke-width:0.5;"/>
     </g>
     <g id="line2d_144">
      <g>
       <use style="fill:#f1f2f3;stroke:#f1f2f3;stroke-width:0.6;" x="77.4" xlink:href="#m29c01e3084" y="87.144085"/>
      </g>
     </g>
    </g>
    <g id="ytick_28">
     <g id="line2d_145">
      <path clip-path="url(#p8dc06d0857)" d="M 77.4 78.534833 
L 557.28 78.534833 
" style="fill:none;stroke:#3f3a38;stroke-dasharray:1.85,0.8;stroke-dashoffset:0;stroke-width:0.5;"/>
     </g>
     <g id="line2d_146">
      <g>
       <use style="fill:#f1f2f3;stroke:#f1f2f3;stroke-width:0.6;" x="77.4" xlink:href="#m29c01e3084" y="78.534833"/>
      </g>
     </g>
    </g>
    <g id="ytick_29">
     <g id="line2d_147">
      <path clip-path="url(#p8dc06d0857)" d="M 77.4 69.92558 
L 557.28 69.92558 
" style="fill:none;stroke:#3f3a38;stroke-dasharray:1.85,0.8;stroke-dashoffset:0;stroke-width:0.5;"/>
     </g>
     <g id="line2d_148">
      <g>
       <use style="fill:#f1f2f3;stroke:#f1f2f3;stroke-width:0.6;" x="77.4" xlink:href="#m29c01e3084" y="69.92558"/>
      </g>
     </g>
    </g>
    <g id="ytick_30">
     <g id="line2d_149">
      <path clip-path="url(#p8dc06d0857)" d="M 77.4 61.316327 
L 557.28 61.316327 
" style="fill:none;stroke:#3f3a38;stroke-dasharray:1.85,0.8;stroke-dashoffset:0;stroke-width:0.5;"/>
     </g>
     <g id="line2d_150">
      <g>
       <use style="fill:#f1f2f3;stroke:#f1f2f3;stroke-width:0.6;" x="77.4" xlink:href="#m29c01e3084" y="61.316327"/>
      </g>
     </g>
    </g>
    <g id="ytick_31">
     <g id="line2d_151">
      <path clip-path="url(#p8dc06d0857)" d="M 77.4 44.097822 
L 557.28 44.097822 
" style="fill:none;stroke:#3f3a38;stroke-dasharray:1.85,0.8;stroke-dashoffset:0;stroke-width:0.5;"/>
     </g>
     <g id="line2d_152">
      <g>
       <use style="fill:#f1f2f3;stroke:#f1f2f3;stroke-width:0.6;" x="77.4" xlink:href="#m29c01e3084" y="44.097822"/>
      </g>
     </g>
    </g>
    <g id="text_18">
     <!-- Speed [Km/h] -->
     <defs>
      <path d="M 32.90625 73.90625 
C 18.703125 73.90625 7.5 66.5 7.796875 54.203125 
C 8.09375 43.90625 16 38.59375 29.59375 34.203125 
L 33.703125 32.90625 
C 46.40625 28.703125 51.796875 24.40625 51.796875 17.703125 
C 51.796875 10.59375 45.796875 6.703125 35.09375 6.703125 
C 23 6.703125 16.796875 12.296875 13.90625 18.796875 
C 13.5 19.59375 13 20 12.09375 20 
L 6.40625 20 
C 5.296875 20 4.703125 19.296875 5 18.296875 
C 7.203125 9.5 16.09375 -1.296875 34.796875 -1.296875 
C 50.59375 -1.296875 60.90625 6.203125 60.90625 18.90625 
C 60.90625 28.796875 54.5 36 38.296875 41 
L 34.40625 42.203125 
C 22.203125 45.90625 16.796875 48.90625 16.796875 55.5 
C 16.796875 61.59375 22.09375 66 32.203125 66 
C 41.5 66 47.40625 61.40625 50.5 56 
C 50.90625 55.203125 51.5 54.90625 52.40625 54.90625 
L 57.796875 54.90625 
C 59 54.90625 59.5 55.59375 59.09375 56.703125 
C 55.90625 65.59375 47.203125 73.90625 32.90625 73.90625 
z
" id="Gravity-Regular-83"/>
      <path d="M 34.09375 54.296875 
C 27.40625 54.296875 20.90625 51.40625 17 45.40625 
L 16.40625 45.40625 
L 16.296875 51.5 
C 16.296875 52.5 15.703125 53.09375 14.703125 53.09375 
L 9.40625 53.09375 
C 8.40625 53.09375 7.796875 52.5 7.796875 51.5 
L 7.40625 -20.40625 
C 7.40625 -21.40625 8 -22 9 -22 
L 15 -22 
C 16 -22 16.59375 -21.40625 16.59375 -20.40625 
L 16.5 5.09375 
L 17 5.09375 
C 21.09375 0.90625 25.90625 -1.296875 32.5 -1.296875 
C 46.40625 -1.296875 56.40625 10.203125 56.40625 27 
C 56.40625 42.90625 47.40625 54.296875 34.09375 54.296875 
z
M 31.796875 46.59375 
C 41.203125 46.59375 47.59375 38.90625 47.59375 26.296875 
C 47.59375 14.09375 41.796875 6.5 31.90625 6.5 
C 23.59375 6.5 16.90625 11.90625 15.90625 22.796875 
L 15.90625 29.5 
C 16.796875 40.5 23.59375 46.59375 31.796875 46.59375 
z
" id="Gravity-Regular-112"/>
      <path d="M 53 73 
C 53 74 52.40625 74.59375 51.40625 74.59375 
L 46 74.59375 
C 45 74.59375 44.40625 74 44.40625 73 
L 44.40625 47.796875 
L 43.90625 47.796875 
C 40.203125 52 35.296875 54.296875 29.09375 54.296875 
C 14.5 54.296875 4.40625 43 4.40625 26 
C 4.40625 10.09375 13.40625 -1.296875 26.703125 -1.296875 
C 33.40625 -1.296875 39.90625 1.59375 43.5 7.5 
L 44.09375 7.5 
L 44.09375 1.59375 
C 44.09375 0.59375 44.703125 0 45.703125 0 
L 51.703125 0 
C 52.703125 0 53.296875 0.59375 53.296875 1.59375 
z
M 28.90625 46.59375 
C 37.09375 46.59375 43.796875 41.203125 44.796875 30.09375 
L 44.796875 23.40625 
C 44 12.5 37.09375 6.59375 29 6.59375 
C 19.59375 6.59375 13.09375 14 13.09375 26.703125 
C 13.09375 38.90625 19 46.59375 28.90625 46.59375 
z
" id="Gravity-Regular-100"/>
      <path id="Gravity-Regular-32"/>
      <path d="M 17.59375 66.09375 
L 32.703125 66.09375 
C 33.703125 66.09375 34.296875 66.703125 34.296875 67.703125 
L 34.296875 71.40625 
C 34.296875 72.40625 33.703125 73 32.703125 73 
L 11.59375 73 
C 10.59375 73 10 72.40625 10 71.40625 
L 9.703125 -20.40625 
C 9.703125 -21.40625 10.296875 -22 11.296875 -22 
L 32.703125 -22 
C 33.703125 -22 34.296875 -21.40625 34.296875 -20.40625 
L 34.296875 -16.703125 
C 34.296875 -15.703125 33.703125 -15.09375 32.703125 -15.09375 
L 17.90625 -15.09375 
z
" id="Gravity-Regular-91"/>
      <path d="M 28.59375 36.59375 
L 55.59375 1 
C 56.09375 0.296875 56.703125 0 57.5 0 
L 65.09375 0 
C 66.5 0 66.90625 0.90625 66.09375 2 
L 34.5 42.203125 
L 64.296875 70.703125 
C 65.40625 71.703125 65 72.703125 63.5 72.703125 
L 56.703125 72.703125 
C 55.90625 72.703125 55.40625 72.5 54.796875 71.90625 
L 16.5 35.5 
L 16.296875 71.09375 
C 16.296875 72.09375 15.703125 72.703125 14.703125 72.703125 
L 9.203125 72.703125 
C 8.203125 72.703125 7.59375 72.09375 7.59375 71.09375 
L 7.203125 1.59375 
C 7.203125 0.59375 7.796875 0 8.796875 0 
L 15.09375 0 
C 16.09375 0 16.703125 0.59375 16.703125 1.59375 
L 16.59375 25.09375 
z
" id="Gravity-Regular-75"/>
      <path d="M 37.09375 71.296875 
C 37.5 72.40625 37 73.09375 35.90625 73.09375 
L 30 73.09375 
C 29 73.09375 28.5 72.703125 28.09375 71.796875 
L 3.203125 1.796875 
C 2.796875 0.703125 3.296875 0 4.40625 0 
L 10.40625 0 
C 11.40625 0 11.90625 0.40625 12.296875 1.296875 
z
" id="Gravity-Regular-47"/>
      <path d="M 16.5 45.203125 
L 16.296875 73 
C 16.296875 74 15.703125 74.59375 14.703125 74.59375 
L 9.40625 74.59375 
C 8.40625 74.59375 7.796875 74 7.796875 73 
L 7.40625 1.59375 
C 7.40625 0.59375 8 0 9 0 
L 15 0 
C 16 0 16.59375 0.59375 16.59375 1.59375 
L 16.5 29.796875 
C 17.59375 40.203125 23.296875 45.5 30.703125 45.5 
C 37.40625 45.5 41.40625 41.296875 41.40625 32.796875 
L 41.203125 1.59375 
C 41.203125 0.59375 41.796875 0 42.796875 0 
L 48.796875 0 
C 49.796875 0 50.40625 0.59375 50.40625 1.59375 
L 50.203125 35 
C 50.09375 47.09375 43.59375 53.90625 33.59375 53.90625 
C 26.5 53.90625 21.09375 50.5 17.203125 45.09375 
z
" id="Gravity-Regular-104"/>
      <path d="M 8.59375 73 
C 7.59375 73 7 72.40625 7 71.40625 
L 7 67.703125 
C 7 66.703125 7.59375 66.09375 8.59375 66.09375 
L 23.40625 66.09375 
L 23.703125 -15.09375 
L 8.59375 -15.09375 
C 7.59375 -15.09375 7 -15.703125 7 -16.703125 
L 7 -20.40625 
C 7 -21.40625 7.59375 -22 8.59375 -22 
L 29.703125 -22 
C 30.703125 -22 31.296875 -21.40625 31.296875 -20.40625 
L 31.59375 71.40625 
C 31.59375 72.40625 31 73 30 73 
z
" id="Gravity-Regular-93"/>
     </defs>
     <g style="fill:#f1f2f3;" transform="translate(45.939062 207.427219)rotate(-90)scale(0.1 -0.1)">
      <use xlink:href="#Gravity-Regular-83"/>
      <use x="65.499985" xlink:href="#Gravity-Regular-112"/>
      <use x="126.299973" xlink:href="#Gravity-Regular-101"/>
      <use x="183.09996" xlink:href="#Gravity-Regular-101"/>
      <use x="239.899948" xlink:href="#Gravity-Regular-100"/>
      <use x="300.599945" xlink:href="#Gravity-Regular-32"/>
      <use x="321.299942" xlink:href="#Gravity-Regular-91"/>
      <use x="362.59993" xlink:href="#Gravity-Regular-75"/>
      <use x="432.199921" xlink:href="#Gravity-Regular-109"/>
      <use x="518.599915" xlink:href="#Gravity-Regular-47"/>
      <use x="558.899902" xlink:href="#Gravity-Regular-104"/>
      <use x="616.69989" xlink:href="#Gravity-Regular-93"/>
     </g>
    </g>
   </g>
   <g id="line2d_153">
    <path clip-path="url(#p8dc06d0857)" d="M 99.212727 75.952057 
L 99.757365 75.952057 
L 100.846639 74.230206 
L 101.935914 71.647431 
L 103.569826 69.064655 
L 105.748376 66.912342 
L 106.293013 66.481879 
L 107.382288 66.481879 
L 109.0162 65.620954 
L 110.105475 63.038178 
L 111.739387 62.177253 
L 112.828662 61.316327 
L 113.917937 59.594477 
L 115.007211 58.733552 
L 116.641124 58.733552 
L 117.730398 57.011701 
L 119.364311 57.011701 
L 120.453585 56.150776 
L 123.176772 56.150776 
L 124.266047 55.289851 
L 125.899959 54.428925 
L 128.078509 54.428925 
L 129.712421 53.568 
L 132.435608 53.568 
L 133.524883 54.428925 
L 135.703432 57.011701 
L 137.881982 58.733552 
L 139.515894 64.760028 
L 141.149806 106.945367 
L 142.239081 143.965153 
L 143.328355 168.931986 
L 144.962268 189.594192 
L 146.051542 214.561025 
L 147.685455 229.196754 
L 149.319367 251.580811 
L 149.864004 258.468214 
L 150.953279 265.355616 
L 152.587191 270.521167 
L 153.676466 277.408569 
L 155.310378 279.13042 
L 156.399653 286.878747 
L 158.033565 286.017822 
L 159.12284 286.017822 
L 160.756752 283.435046 
L 161.846027 288.600598 
L 163.479939 292.044299 
L 164.569213 295.488 
L 166.203126 294.627075 
L 167.2924 293.766149 
L 168.926313 291.183374 
L 170.015587 286.017822 
L 171.649499 279.991345 
L 173.828049 261.911915 
L 175.461961 248.998036 
L 177.095873 243.832484 
L 178.185148 224.892128 
L 179.274423 214.561025 
L 180.908335 209.395473 
L 181.99761 193.037893 
L 183.631522 185.289566 
L 185.265434 173.236612 
L 186.354709 165.488285 
L 186.899346 162.044584 
L 189.077896 153.148356 
L 191.256445 144.826078 
L 192.34572 137.938676 
L 193.979632 134.494975 
L 195.068907 128.468498 
L 196.702819 124.163872 
L 197.792094 118.99832 
L 199.970644 114.693694 
L 201.059918 111.249993 
L 202.149193 108.667217 
L 203.783105 106.084441 
L 204.87238 102.64074 
L 207.595567 98.336114 
L 209.229479 96.614263 
L 210.318754 94.031488 
L 211.952666 93.170562 
L 213.041941 90.587786 
L 214.131216 90.587786 
L 215.765128 89.726861 
L 216.854402 88.005011 
L 219.032952 85.852698 
L 219.577589 85.422235 
L 221.756139 85.422235 
L 223.390051 83.700384 
L 224.479326 83.700384 
L 226.657875 81.548071 
L 227.202513 81.117609 
L 228.291788 81.117609 
L 230.470337 78.965295 
L 233.193524 76.812982 
L 234.827436 76.812982 
L 235.916711 74.230206 
L 237.005986 74.230206 
L 238.639898 73.369281 
L 239.729173 72.508356 
L 241.363085 72.508356 
L 242.45236 74.230206 
L 243.541634 73.369281 
L 245.175546 75.091132 
L 246.264821 88.005011 
L 247.898733 118.137395 
L 248.988008 157.739957 
L 250.62192 179.263089 
L 251.711195 207.673623 
L 253.345107 221.448427 
L 254.434382 232.640456 
L 255.523657 240.388783 
L 256.612932 246.41526 
L 259.336118 253.302662 
L 260.970031 256.746363 
L 262.603943 249.858961 
L 263.14858 247.276185 
L 264.782492 247.276185 
L 266.416404 241.823658 
L 267.505679 237.806007 
L 269.139591 228.048854 
L 270.228866 222.309352 
L 271.318141 209.395473 
L 272.952053 200.786221 
L 274.041328 188.733267 
L 275.67524 185.289566 
L 277.309152 171.514762 
L 278.943064 163.335972 
L 279.487702 160.322733 
L 281.121614 155.157181 
L 283.844801 137.938676 
L 284.934076 137.077751 
L 287.112625 129.329423 
L 288.2019 126.172698 
L 290.380449 120.720171 
L 291.469724 137.077751 
L 292.558999 137.077751 
L 294.192911 149.130705 
L 295.826823 166.34921 
L 296.916098 173.236612 
L 298.005373 181.845865 
L 299.639285 183.567715 
L 300.72856 179.263089 
L 302.907109 174.528 
L 303.451747 173.236612 
L 304.541021 174.958463 
L 306.174934 171.514762 
L 307.264208 162.905509 
L 308.898121 159.461808 
L 309.987395 149.130705 
L 311.621307 145.687004 
L 312.710582 138.799601 
L 314.344494 135.3559 
L 315.433769 130.190349 
L 316.523044 130.190349 
L 318.156956 125.885722 
L 319.246231 124.163872 
L 320.880143 137.077751 
L 321.969418 168.07106 
L 323.058693 178.402164 
L 324.692605 184.428641 
L 325.781879 191.316043 
L 326.871154 192.176968 
L 329.049704 195.620669 
L 330.138979 187.872342 
L 331.772891 184.428641 
L 332.862165 175.819388 
L 334.496078 168.358036 
L 335.585352 163.766434 
L 336.674627 157.739957 
L 338.308539 152.574406 
L 339.942451 141.81284 
L 340.487089 137.938676 
L 342.121001 136.216826 
L 343.210276 130.190349 
L 345.388825 120.720171 
L 345.933463 118.137395 
L 347.022737 116.415544 
L 348.65665 112.971843 
L 349.745924 108.667217 
L 351.379837 104.362591 
L 353.013749 98.336114 
L 353.558386 96.614263 
L 355.192298 94.892413 
L 356.281573 90.587786 
L 357.915485 88.865936 
L 359.00476 83.700384 
L 360.638672 82.839459 
L 362.272584 79.395758 
L 363.361859 79.395758 
L 364.995771 75.091132 
L 366.629683 75.091132 
L 367.718958 72.508356 
L 369.35287 70.786505 
L 372.076057 66.481879 
L 373.165332 65.620954 
L 374.799244 64.760028 
L 375.888519 63.899103 
L 378.067068 61.74679 
L 378.611706 61.316327 
L 379.700981 61.316327 
L 382.968805 59.594477 
L 384.05808 60.455402 
L 388.415179 60.455402 
L 389.504454 63.038178 
L 391.138366 65.620954 
L 392.22764 86.28316 
L 393.861553 100.91889 
L 394.950827 135.3559 
L 396.58474 162.905509 
L 398.218652 174.097537 
L 399.307926 186.150491 
L 400.397201 192.176968 
L 402.031113 193.037893 
L 403.120388 193.037893 
L 404.7543 187.872342 
L 406.93285 168.07106 
L 408.566762 166.34921 
L 409.656037 159.461808 
L 411.289949 157.739957 
L 412.379224 149.99163 
L 413.468498 148.269779 
L 415.102411 142.243302 
L 416.191685 137.077751 
L 417.825598 136.216826 
L 418.914872 131.051274 
L 420.004147 131.051274 
L 421.638059 128.468498 
L 422.727334 124.163872 
L 424.361246 121.581096 
L 425.450521 117.27647 
L 427.62907 112.971843 
L 428.718345 109.528142 
L 429.80762 105.223516 
L 431.441532 103.501665 
L 432.530807 100.057964 
L 433.620082 98.336114 
L 435.253994 97.475189 
L 436.343269 93.170562 
L 437.977181 92.309637 
L 439.066456 89.726861 
L 440.700368 88.005011 
L 442.878917 84.56131 
L 444.512829 83.700384 
L 445.602104 81.117609 
L 447.236016 81.117609 
L 448.325291 79.395758 
L 449.414566 78.534833 
L 451.048478 77.673907 
L 452.137753 75.952057 
L 453.771665 75.091132 
L 454.86094 74.230206 
L 457.584127 74.230206 
L 458.673401 73.369281 
L 460.851951 71.216968 
L 461.396588 70.786505 
L 462.485863 70.786505 
L 464.119775 69.92558 
L 465.20905 68.20373 
L 466.842962 69.064655 
L 467.932237 68.20373 
L 469.021512 68.20373 
L 470.110787 69.064655 
L 471.744699 69.064655 
L 472.833973 70.786505 
L 474.467886 71.647431 
L 475.55716 73.369281 
L 476.646435 76.812982 
L 478.824985 126.316185 
L 479.369622 139.660527 
L 481.548172 159.461808 
L 483.182084 172.375687 
L 484.815996 172.375687 
L 485.905271 180.124014 
L 487.539183 179.263089 
L 488.628458 171.514762 
L 490.26237 168.931986 
L 491.351645 163.766434 
L 492.985557 159.461808 
L 494.619469 152.574406 
L 495.708744 152.574406 
L 497.887293 142.673765 
L 498.431931 140.521452 
L 500.61048 134.494975 
L 501.155117 132.773125 
L 502.78903 129.329423 
L 503.878304 125.024797 
L 504.967579 124.163872 
L 506.056854 119.859246 
L 507.690766 116.415544 
L 508.780041 112.971843 
L 510.413953 109.528142 
L 511.503228 106.084441 
L 513.13714 103.501665 
L 514.771052 99.484014 
L 515.860327 96.614263 
L 516.949602 96.614263 
L 518.583514 94.892413 
L 519.672789 91.448712 
L 522.395975 87.144085 
L 523.48525 86.28316 
L 525.119162 83.700384 
L 526.208437 82.839459 
L 529.476261 79.395758 
L 532.199448 79.395758 
L 533.288723 77.673907 
L 534.922635 76.812982 
L 535.467273 76.812982 
L 535.467273 76.812982 
" style="fill:none;stroke:#ff79c6;stroke-linecap:square;stroke-width:1.5;"/>
   </g>
   <g id="patch_3">
    <path d="M 77.4 307.584 
L 77.4 41.472 
" style="fill:none;stroke:#2d2928;stroke-linecap:square;stroke-linejoin:miter;stroke-width:0.8;"/>
   </g>
   <g id="patch_4">
    <path d="M 557.28 307.584 
L 557.28 41.472 
" style="fill:none;stroke:#2d2928;stroke-linecap:square;stroke-linejoin:miter;stroke-width:0.8;"/>
   </g>
   <g id="patch_5">
    <path d="M 77.4 307.584 
L 557.28 307.584 
" style="fill:none;stroke:#2d2928;stroke-linecap:square;stroke-linejoin:miter;stroke-width:0.8;"/>
   </g>
   <g id="patch_6">
    <path d="M 77.4 41.472 
L 557.28 41.472 
" style="fill:none;stroke:#2d2928;stroke-linecap:square;stroke-linejoin:miter;stroke-width:0.8;"/>
   </g>
   <g id="text_19">
    <!-- Leclerc is -->
    <defs>
     <path d="M 11.796875 3.5 
L 11.703125 71 
C 11.703125 71.5 11.40625 71.796875 10.90625 71.796875 
L 8.703125 71.796875 
C 8.203125 71.796875 7.90625 71.5 7.90625 71 
L 7.796875 0.796875 
C 7.796875 0.296875 8.09375 0 8.59375 0 
L 50.59375 0 
C 51.09375 0 51.40625 0.296875 51.40625 0.796875 
L 51.40625 2.703125 
C 51.40625 3.203125 51.09375 3.5 50.59375 3.5 
z
" id="Gravity-Light-76"/>
     <path d="M 28.796875 52.296875 
C 15.40625 52.296875 5.59375 41.703125 5.59375 25.5 
C 5.59375 10.09375 14.59375 -0.703125 28.703125 -0.703125 
C 38.203125 -0.703125 45.09375 3.90625 48.90625 11.796875 
C 49.09375 12.296875 48.90625 12.703125 48.296875 12.703125 
L 46.09375 12.703125 
C 45.703125 12.703125 45.40625 12.5 45.203125 12.09375 
C 42 6.40625 36.59375 2.703125 28.90625 2.703125 
C 15.40625 2.703125 8.703125 14 9.296875 27.09375 
L 49.296875 27.09375 
C 49.796875 27.09375 50.09375 27.40625 50.09375 27.90625 
C 50.203125 41.703125 42 52.296875 28.796875 52.296875 
z
M 28.59375 48.796875 
C 39.203125 48.796875 45.796875 40.796875 46.40625 30.296875 
L 9.59375 30.296875 
C 11 41.5 18.40625 48.796875 28.59375 48.796875 
z
" id="Gravity-Light-101"/>
     <path d="M 28.203125 52.40625 
C 14.40625 52.40625 5.59375 41.40625 5.59375 25.5 
C 5.59375 10.09375 14.203125 -0.703125 28.09375 -0.703125 
C 38.296875 -0.703125 44.90625 4.59375 48.09375 11.90625 
C 48.40625 12.40625 48.09375 12.796875 47.5 12.796875 
L 45.296875 12.796875 
C 44.796875 12.796875 44.5 12.59375 44.296875 12.203125 
C 41.703125 6.5 36.40625 2.703125 28.40625 2.703125 
C 15.703125 2.703125 9.296875 12.90625 9.296875 25.59375 
C 9.296875 38.703125 15.703125 49 28.203125 49 
C 36.203125 49 41.59375 45.09375 44.40625 38.90625 
C 44.59375 38.5 44.90625 38.296875 45.40625 38.296875 
L 47.5 38.296875 
C 48.09375 38.296875 48.40625 38.703125 48.203125 39.203125 
C 45.09375 47 38.296875 52.40625 28.203125 52.40625 
z
" id="Gravity-Light-99"/>
     <path d="M 15.09375 72.59375 
C 15.09375 73.09375 14.796875 73.40625 14.296875 73.40625 
L 12.296875 73.40625 
C 11.796875 73.40625 11.5 73.09375 11.5 72.59375 
L 11.296875 0.796875 
C 11.296875 0.296875 11.59375 0 12.09375 0 
L 14.40625 0 
C 14.90625 0 15.203125 0.296875 15.203125 0.796875 
z
" id="Gravity-Light-108"/>
     <path d="M 31.296875 51.90625 
C 31.296875 52.40625 31 52.703125 30.5 52.703125 
C 22.09375 52.40625 16.5 47.59375 12.90625 41.5 
L 12.296875 41.59375 
L 12.296875 51.09375 
C 12.296875 51.59375 12 51.90625 11.5 51.90625 
L 9.40625 51.90625 
C 8.90625 51.90625 8.59375 51.59375 8.59375 51.09375 
L 8.59375 0.796875 
C 8.59375 0.296875 8.90625 0 9.40625 0 
L 11.59375 0 
C 12.09375 0 12.40625 0.296875 12.40625 0.796875 
L 12.296875 34.796875 
C 16 44.5 22.5 48.40625 30.5 48.703125 
C 31 48.703125 31.296875 49 31.296875 49.5 
z
" id="Gravity-Light-114"/>
     <path id="Gravity-Light-32"/>
     <path d="M 13.296875 72.59375 
C 13.296875 73.09375 13 73.40625 12.5 73.40625 
L 10.40625 73.40625 
C 9.90625 73.40625 9.59375 73.09375 9.59375 72.59375 
L 9.59375 67 
C 9.59375 66.5 9.90625 66.203125 10.40625 66.203125 
L 12.5 66.203125 
C 13 66.203125 13.296875 66.5 13.296875 67 
z
M 13.296875 51.09375 
C 13.296875 51.59375 13 51.90625 12.5 51.90625 
L 10.40625 51.90625 
C 9.90625 51.90625 9.59375 51.59375 9.59375 51.09375 
L 9.59375 0.796875 
C 9.59375 0.296875 9.90625 0 10.40625 0 
L 12.59375 0 
C 13.09375 0 13.40625 0.296875 13.40625 0.796875 
z
" id="Gravity-Light-105"/>
     <path d="M 24.296875 52.703125 
C 14.5 52.703125 7.09375 47.703125 7.09375 39.40625 
C 7.09375 32 12.90625 28.90625 21.796875 26.09375 
L 25.59375 25 
C 34.59375 22.203125 39.59375 19.296875 39.59375 13.09375 
C 39.59375 5.90625 33.296875 2.703125 25.59375 2.703125 
C 17.703125 2.703125 11.296875 6.203125 8.90625 12.40625 
C 8.796875 12.796875 8.5 13 8 13 
L 5.796875 13 
C 5.203125 13 4.90625 12.59375 5.09375 12.09375 
C 8.09375 3.703125 15.59375 -0.703125 25.40625 -0.703125 
C 36.40625 -0.703125 43.5 4.59375 43.5 13.40625 
C 43.5 20.796875 38.296875 24.90625 27.796875 28.09375 
L 23.796875 29.296875 
C 15.90625 31.796875 10.796875 34 10.796875 39.703125 
C 10.796875 45.796875 16.5 49.296875 24.203125 49.296875 
C 32.203125 49.296875 36.40625 46 38.90625 41.09375 
C 39.09375 40.703125 39.40625 40.5 39.90625 40.5 
L 41.90625 40.5 
C 42.5 40.5 42.796875 40.90625 42.59375 41.40625 
C 40.296875 47.203125 35.09375 52.703125 24.296875 52.703125 
z
" id="Gravity-Light-115"/>
    </defs>
    <g style="fill:#f1f1f3;" transform="translate(277.260391 29.472)scale(0.19 -0.19)">
     <use xlink:href="#Gravity-Light-76"/>
     <use x="54.299988" xlink:href="#Gravity-Light-101"/>
     <use x="109.999985" xlink:href="#Gravity-Light-99"/>
     <use x="161.299973" xlink:href="#Gravity-Light-108"/>
     <use x="187.899963" xlink:href="#Gravity-Light-101"/>
     <use x="243.59996" xlink:href="#Gravity-Light-114"/>
     <use x="277.199951" xlink:href="#Gravity-Light-99"/>
     <use x="328.499939" xlink:href="#Gravity-Light-32"/>
     <use x="350.799927" xlink:href="#Gravity-Light-105"/>
     <use x="373.699921" xlink:href="#Gravity-Light-115"/>
    </g>
   </g>
   <g id="legend_1">
    <g id="patch_7">
     <path d="M 496.100312 64.131375 
L 552.28 64.131375 
L 552.28 46.472 
L 496.100312 46.472 
z
" style="fill:#1a1a1a;opacity:0.8;stroke:#1a1a1a;stroke-linejoin:miter;"/>
    </g>
    <g id="line2d_154">
     <path d="M 500.100312 54.431375 
L 520.100312 54.431375 
" style="fill:none;stroke:#ff79c6;stroke-linecap:square;stroke-width:1.5;"/>
    </g>
    <g id="line2d_155"/>
    <g id="text_20">
     <!-- Fast -->
     <defs>
      <path d="M 16.296875 64.703125 
L 52.59375 64.703125 
C 53.59375 64.703125 54.203125 65.296875 54.203125 66.296875 
L 54.203125 71.09375 
C 54.203125 72.09375 53.59375 72.703125 52.59375 72.703125 
L 9.203125 72.703125 
C 8.203125 72.703125 7.59375 72.09375 7.59375 71.09375 
L 7.203125 1.59375 
C 7.203125 0.59375 7.796875 0 8.796875 0 
L 15.09375 0 
C 16.09375 0 16.703125 0.59375 16.703125 1.59375 
L 16.5 34.40625 
L 47.5 34.40625 
C 48.5 34.40625 49.09375 35 49.09375 36 
L 49.09375 40.796875 
C 49.09375 41.796875 48.5 42.40625 47.5 42.40625 
L 16.5 42.40625 
z
" id="Gravity-Regular-70"/>
      <path d="M 28.296875 54.296875 
C 16.703125 54.296875 9.40625 48.40625 7.09375 39.5 
C 6.90625 38.59375 7.5 38 8.59375 38 
L 13.796875 38 
C 14.703125 38 15.296875 38.40625 15.59375 39.296875 
C 17.203125 44 21.40625 46.796875 27.703125 46.796875 
C 35.5 46.796875 39.796875 42.90625 39.796875 37.5 
C 39.796875 33.59375 37.40625 32.09375 32.40625 31.59375 
C 12.796875 29.703125 4.5 24.703125 4.5 13.796875 
C 4.5 4.203125 11.203125 -0.90625 20.703125 -0.90625 
C 29 -0.90625 35.5 2.90625 39.09375 8.40625 
L 39.796875 8.40625 
L 39.703125 1.59375 
C 39.703125 0.59375 40.296875 0 41.296875 0 
L 47 0 
C 48 0 48.59375 0.59375 48.59375 1.59375 
L 48.296875 36.203125 
C 48.296875 47.5 40.796875 54.296875 28.296875 54.296875 
z
M 39.703125 26.5 
L 39.796875 19.5 
C 39.203125 13.703125 32.5 6.703125 22.59375 6.703125 
C 16.703125 6.703125 13.09375 9.40625 13.09375 14.40625 
C 13.09375 20.59375 19.296875 23.5 31.59375 24.90625 
C 35.09375 25.203125 37.59375 25.90625 39.296875 26.703125 
z
" id="Gravity-Regular-97"/>
      <path d="M 26 54.296875 
C 14.90625 54.296875 6.5 48 6.5 38.796875 
C 6.5 30.703125 13.09375 27 22.59375 24.296875 
L 26.59375 23.09375 
C 35.09375 20.59375 38.703125 18.203125 38.703125 13.90625 
C 38.703125 8.703125 34.203125 6.5 27.703125 6.5 
C 21.296875 6.5 16.5 8.703125 13.90625 13.796875 
C 13.40625 14.59375 12.90625 15 12 15 
L 6.09375 15 
C 4.90625 15 4.40625 14.296875 4.796875 13.203125 
C 7.59375 5 14.90625 -1.296875 27.203125 -1.296875 
C 39.59375 -1.296875 47.59375 4.90625 47.59375 14.703125 
C 47.59375 22 42.796875 26.703125 30.796875 30.203125 
L 26.703125 31.40625 
C 19.09375 33.59375 15.09375 35.296875 15.09375 39.40625 
C 15.09375 43.703125 19.296875 46.59375 25.5 46.59375 
C 31.59375 46.59375 35.40625 44.296875 37.90625 40.40625 
C 38.40625 39.59375 39 39.296875 39.90625 39.296875 
L 45.09375 39.296875 
C 46.203125 39.296875 46.796875 40 46.40625 41.09375 
C 44.40625 47.40625 38 54.296875 26 54.296875 
z
" id="Gravity-Regular-115"/>
      <path d="M 32.703125 51.5 
C 32.703125 52.5 32.09375 53.09375 31.09375 53.09375 
L 21.296875 53.09375 
L 21.203125 72.203125 
C 21.203125 73.203125 20.59375 73.796875 19.59375 73.796875 
L 14.296875 73.796875 
C 13.296875 73.796875 12.703125 73.203125 12.703125 72.203125 
L 12.59375 53.09375 
L 4.59375 53.09375 
C 3.59375 53.09375 3 52.5 3 51.5 
L 3 47.296875 
C 3 46.296875 3.59375 45.703125 4.59375 45.703125 
L 12.59375 45.703125 
L 12.40625 1.59375 
C 12.40625 0.59375 13 0 14 0 
L 20 0 
C 21 0 21.59375 0.59375 21.59375 1.59375 
L 21.40625 45.703125 
L 31.09375 45.703125 
C 32.09375 45.703125 32.703125 46.296875 32.703125 47.296875 
z
" id="Gravity-Regular-116"/>
     </defs>
     <g style="fill:#f1f1f3;" transform="translate(528.100312 57.931375)scale(0.1 -0.1)">
      <use xlink:href="#Gravity-Regular-70"/>
      <use x="58.799988" xlink:href="#Gravity-Regular-97"/>
      <use x="114.899979" xlink:href="#Gravity-Regular-115"/>
      <use x="166.799973" xlink:href="#Gravity-Regular-116"/>
     </g>
    </g>
   </g>
  </g>
 </g>
 <defs>
  <clipPath id="p8dc06d0857">
   <rect height="266.112" width="479.88" x="77.4" y="41.472"/>
  </clipPath>
 </defs>
</svg>
